<svg viewBox="49.89189189189187 134.13750000000005 1189.7297297297298 1207.2374999999997" xmlns="http://www.w3.org/2000/svg" overflow="visible" xmlns:xlink="http://www.w3.org/1999/xlink" width="1189.7297297297298px" height="1207.2374999999997px"><g id="Master/Character/Bust" stroke="none" stroke-width="1" fill="none" fill-rule="evenodd"><g id="Body" transform="translate(147.000000, 639.000000) scale(1 1)"><g id="Body/Shrug" stroke="none" stroke-width="1" fill="none" fill-rule="evenodd"><path d="M1016.74185,283.356849 C1026.98485,278.010298 1036.98585,272.201093 1046.82885,266.154552 C1053.76185,262.007695 1047.62385,251.561941 1040.51485,255.336272 C1036.87985,257.266999 1033.25885,259.216753 1029.62485,261.135463 C1032.48485,258.671984 1035.13585,255.990196 1037.51285,253.067067 L1037.34885,252.903837 C1046.51285,244.69324 1034.74185,229.201359 1024.31985,235.945885 C1015.12885,242.608295 1005.85385,249.405896 995.303845,253.793093 C973.451845,263.05918 949.348845,264.592346 925.894845,264.859724 C917.311845,264.214813 909.113845,265.701913 900.785845,267.359254 C904.050845,254.260753 912.221845,244.369783 916.555845,231.683865 C919.753845,218.875774 901.265845,210.151452 894.713845,222.462841 C893.105845,225.486111 891.572845,228.544431 890.073845,231.617772 C875.911845,244.498965 852.263845,243.364363 837.980845,257.194897 C829.84539,264.415634 825.863543,274.213366 824.291148,284.046564 C823.223382,290.723997 824.883293,297.417784 820.845845,303.332063 C801.326845,330.940057 770.48511,374.577692 754.82211,404.960606 C743.73211,332.762632 714.120845,243.462501 683.529845,177.446258 C673.413845,156.333438 661.840845,135.703299 646.648845,117.807022 C648.370845,111.838592 642.292845,101.244629 638.427845,104.506236 C626.530845,89.972708 605.500845,86.210394 588.590845,78.9851889 C565.763845,69.2244024 546.824845,48.9357461 537.514845,25.8761761 C525.552845,-18.0358465 496.105845,-23.6137249 455.266845,-21.6729837 C416.182845,-21.722053 387.265845,-5.00544197 378.737845,34.7807532 C361.412845,64.9784053 320.506845,59.9843515 291.077845,67.9786429 C269.509845,72.9056019 248.578845,80.5233614 228.686845,90.1940205 C206.557845,69.2033727 127.302845,157.2978 120.098845,179.969823 C124.339845,180.791984 128.554845,181.781381 132.731845,182.987084 C136.451845,184.062603 134.889845,189.68154 131.137845,188.782269 C126.468845,187.660685 121.769845,186.888595 117.048845,186.352838 C116.904845,186.804476 116.778845,187.25311 116.684845,187.696736 C116.154845,187.660685 115.625845,187.615622 115.095845,187.579571 C116.270845,188.191435 117.401845,188.901438 118.503845,189.816731 C121.167845,192.028855 117.699845,196.297885 114.868845,194.535395 C112.201845,192.539576 108.708845,192.855022 105.509845,192.185076 C105.319845,198.763367 81.846845,191.403972 78.200845,189.223893 C61.995845,187.19703 45.324845,189.372103 30.196845,181.557064 C10.067845,177.318077 -10.212155,172.630456 -30.115155,167.231831 C-35.384155,169.285732 -40.336155,176.636114 -36.151155,182.029732 C-33.797155,184.484199 -36.823155,188.491859 -39.787155,186.747395 C-49.728155,180.896131 -57.416155,171.76223 -63.934155,161.922332 C-67.002155,158.82696 -72.448155,159.4929 -76.570155,158.208086 C-77.121155,159.198484 -77.446155,160.302043 -77.441155,161.433641 C-94.926155,164.311707 -82.453155,183.40868 -73.663155,189.359084 C-78.326155,192.395373 -78.503155,198.34077 -78.095155,203.305783 C-79.083155,205.074281 -79.413155,207.266377 -78.553155,209.248176 C-75.265155,216.824878 -68.154155,223.20589 -62.747155,229.344561 C-56.777155,236.124137 -51.454155,242.940765 -44.190155,248.436527 C-16.502155,269.542337 16.910845,281.342004 51.188845,285.956521 C63.359845,287.826162 80.866845,290.687203 88.402845,300.978739 C86.553845,313.192991 83.158845,324.906535 80.078845,336.817359 C75.771845,352.626688 76.064845,369.178066 76.007845,385.295831 C75.405845,384.812148 74.249845,384.912289 74.077845,385.833591 C73.075845,392.515028 72.330845,399.346677 68.269845,404.960606 C64.709845,415.400352 62.340845,426.535079 61.009845,437.502569 C55.677845,489.498009 54.404845,543.026615 66.426845,594.21191 C71.065845,613.200731 78.610845,631.24722 88.890845,647.864691 C91.955845,652.820691 96.883845,654.272742 101.308845,653.299367 C116.118845,660.993234 134.775845,663.459718 150.738845,661.504957 C205.159845,646.099197 186.197845,683.196595 262.500845,671.83655 C394.207845,655.058852 527.311845,688.029421 658.738845,668.67208 C661.975845,693.674394 704.349845,686.502264 719.068845,675.932335 C763.202845,643.122994 785.116845,539.247277 807.265845,486.551848 C822.490845,445.018185 847.984845,371.454281 881.371845,343.583916 C891.382845,335.753856 903.483845,331.632035 915.591845,328.304335 C960.779845,316.659888 1006.14185,305.648335 1051.41585,294.327344 C1059.09385,292.436674 1057.71385,279.342179 1049.50385,280.182366 C1038.60785,281.29694 1027.67485,282.306366 1016.74185,283.356849 Z" id="Skin" fill="#edb98a"/><path d="M10.794845,275.568455 C7.73484505,275.188955 4.73484505,274.098955 1.75484505,273.238955 C-2.79515495,271.908955 -7.25515495,270.358955 -11.645155,268.588955 C-20.705155,264.959955 -29.495155,260.668955 -37.735155,255.418955 C-51.045155,246.928955 -62.805155,236.048955 -71.675155,222.948955 L-72.2841162,222.035332 C-77.347955,214.322123 -86.688755,197.194955 -76.215155,191.338955 C-82.965455,185.698655 -89.345455,175.568655 -88.985455,167.748655 C-88.475455,156.688655 -74.915455,156.839655 -67.905455,161.528655 C-63.315455,164.598655 -59.875455,168.898655 -56.425455,173.129655 C-52.605455,177.828655 -48.525455,182.308655 -44.285455,186.618655 C-43.160455,187.758655 -42.024205,188.876155 -40.8682675,189.975374 L-39.705555,191.068555 C-39.885455,190.639055 -40.045455,190.199055 -40.185455,189.748055 C-42.525455,182.459055 -39.735455,172.969055 -32.445455,169.629055 C-27.9842354,167.583933 -23.3511004,168.832351 -19.0280312,170.568488 L-18.365455,170.839055 C-12.545455,173.248055 -6.65545495,175.379055 -0.595454952,177.089055 C24.104545,184.059055 49.884545,185.219055 75.194545,188.699055 C84.944545,190.049055 94.874545,191.748055 104.574545,194.248055 C108.274345,178.538355 117.344345,163.479355 127.184345,151.089355 C174.304345,91.8183553 252.014345,72.2293553 323.104345,59.5493553 C329.584345,58.3993553 334.954745,66.9789553 338.724745,64.9489553 C345.874745,61.1089553 352.164745,55.6689553 357.684745,49.7589553 C369.454745,37.1489553 377.804745,22.3189553 387.614745,8.26895534 C392.464745,1.32895534 403.624745,7.53895534 399.124745,14.9889553 L396.920258,18.6298707 C387.843471,33.5436082 377.792104,48.9131063 364.774745,60.4789553 C357.854745,66.6189553 350.174745,71.4689553 341.394745,74.4979553 C334.744745,76.7889553 325.414745,78.7189553 318.134745,76.4979553 L317.261041,75.2253257 C317.550101,75.6508776 317.841212,76.075322 318.134545,76.4986553 C337.134345,104.028555 360.974345,127.328555 386.094345,149.318555 C411.450021,171.502339 438.803184,191.367712 466.320864,210.790937 L468.614345,212.408555 C513.444038,179.709779 551.313826,137.05914 577.883799,88.3295566 C572.314745,87.6587553 566.804745,84.0897553 562.044745,81.4287553 C556.314745,78.2097553 550.924745,74.3687553 546.724745,69.2487553 C537.574745,58.0987553 538.764745,43.7287553 537.114745,30.1987553 C537.014745,29.3587553 538.124745,29.1487553 538.634745,29.5687553 C543.594745,33.6887553 545.334745,40.4387553 547.404745,46.2687553 C549.684745,52.6787553 552.264745,57.9597553 557.494745,62.4687553 C562.364745,66.6697553 568.304745,69.7587553 574.074745,72.5087553 C577.050386,73.9197853 591.821836,77.5459945 593.504445,80.5492553 C619.024745,74.5590553 643.884745,84.9090553 662.794745,102.369055 C681.064745,119.239055 694.474745,141.169055 706.314745,162.819055 C718.944745,185.919055 729.294745,209.998055 738.214745,234.748055 C747.254745,259.869055 754.184745,285.539055 757.994745,311.979055 C761.210745,334.270255 763.182585,356.911663 764.458801,379.452064 L764.614745,382.269055 C783.494445,352.638855 802.844445,323.318855 822.594445,294.258855 C818.104445,282.268855 823.074445,270.028855 831.484445,260.768855 C840.804445,250.518855 853.694445,245.758855 866.024445,240.218855 L867.645116,239.485753 C873.587917,236.774966 879.511112,233.789689 884.644445,229.728855 C889.584445,225.808855 893.214445,220.408855 898.414445,216.798855 C905.974445,211.538855 919.694445,212.658855 920.044445,224.148855 C920.224445,230.459855 917.514445,237.378855 915.034445,243.048855 C912.224445,249.459855 908.434445,255.268855 903.934445,260.608855 C903.726445,260.857655 903.499245,261.053975 903.268205,261.209591 L903.094545,261.318855 C909.314545,262.348855 915.584545,263.178855 921.974545,263.468855 C934.864545,264.058855 947.894545,263.108855 960.514545,260.388855 C973.434545,257.608855 985.954545,253.089855 997.574545,246.788855 C1007.50455,241.408855 1016.70455,234.448855 1027.98455,232.808855 C1029.02445,232.649055 1030.07445,232.549055 1031.15445,232.489055 C1032.95445,232.389055 1034.75445,234.509055 1034.04445,236.288055 C1033.65445,237.269055 1033.24445,238.239055 1032.79445,239.219055 C1028.89455,247.80853 1022.91268,256.141587 1015.4514,262.466235 L1014.87455,262.948755 C1017.50475,262.038955 1020.09475,261.018955 1022.64475,259.868955 C1037.63475,253.118955 1051.23475,242.918955 1067.30475,238.818955 C1068.06475,238.618855 1068.83475,238.438855 1069.60475,238.268855 C1074.57475,237.198855 1077.19475,242.598855 1074.27475,246.298855 C1073.80475,246.898855 1073.33475,247.488855 1072.84475,248.078855 C1065.67475,256.978555 1057.76475,265.238555 1049.04475,272.658555 C1046.05475,275.198555 1042.97475,277.658555 1039.83475,280.009555 C1038.51151,281.005676 1037.1809,281.980248 1035.83655,282.939014 L1035.17445,283.408555 C1036.74445,282.299555 1038.29445,281.169555 1039.83445,280.009555 C1049.67445,277.028555 1059.37445,273.498555 1068.86445,269.589555 C1072.63445,268.038555 1075.56445,271.858555 1075.96445,274.998555 C1077.30445,285.519555 1065.62445,293.129555 1058.02445,298.188555 C1050.40445,303.269555 1042.01445,307.129555 1033.42445,310.228555 C1016.9084,316.197369 999.561519,318.907838 982.241805,321.336841 L973.829665,322.508508 C940.532858,327.164413 905.755545,332.730855 881.864445,358.639555 C868.474445,373.158555 859.414445,391.198555 851.124445,408.948555 C842.844445,426.679555 835.574445,444.879555 828.674445,463.179555 C821.524445,482.118555 815.294445,501.408555 808.674445,520.538555 C802.594445,538.104055 795.33217,555.444833 788.139388,572.609758 L787.004445,575.318555 C771.734445,611.799555 753.494445,646.158555 728.074445,676.618555 C723.884445,681.648555 717.114445,674.509555 720.984445,669.528555 C747.574445,635.248555 766.074445,594.799555 781.344445,554.448555 C788.294445,536.089555 794.114445,517.288555 800.794445,498.828555 L804.769325,487.862243 C810.076845,473.243555 815.430445,458.643555 821.014445,444.139555 C828.084445,425.788555 835.854445,407.658555 844.744445,390.118555 L845.687564,388.271808 C854.391346,371.350587 864.731989,354.673906 878.964445,341.868555 C904.581645,318.810135 938.669573,313.278055 971.628071,308.896515 L981.996575,307.530153 C995.930834,305.678972 1009.90445,303.634389 1023.45445,299.908555 C1031.27445,297.769555 1038.91445,295.028555 1046.09445,291.248555 C1048.95445,289.748555 1051.74445,288.099555 1054.44445,286.299555 C1046.74445,288.559555 1038.93445,290.408555 1030.98445,291.858555 C1027.09445,292.568555 1023.24445,293.099555 1019.40445,293.469555 C1009.51485,294.448255 999.704845,294.408255 989.574845,293.879255 C988.714845,293.828255 988.434845,292.479255 989.354845,292.309255 C996.409391,291.05471 1003.4722,289.486115 1010.50571,287.783786 L1012.61475,287.268555 C1012.65475,286.099555 1013.11475,284.858555 1014.07475,283.679555 C1017.57475,279.419555 1024.22475,277.238555 1028.83475,274.228555 C1033.66475,271.078555 1038.34475,267.679555 1042.80475,264.038555 C1046.88475,260.709555 1050.80475,257.188555 1054.57475,253.509555 L1055.70494,252.39888 C1055.32981,252.770483 1054.95308,253.140622 1054.57475,253.508955 C1044.39475,258.209955 1034.74475,264.238955 1024.11475,267.959955 C1015.66475,270.928955 1006.80475,272.928955 997.864745,273.638955 L997.309745,273.682705 L996.754745,273.718955 C987.424645,274.389055 978.034645,274.119055 968.844645,276.139055 C967.814645,276.369055 967.494645,274.989055 968.414645,274.599055 C976.444645,271.259055 984.794645,269.969055 993.234645,268.409055 C993.414545,267.748755 993.874545,267.158755 994.674545,266.778755 L996.833955,265.747795 C1003.26455,262.659355 1009.25855,259.541755 1014.60455,254.528755 C1019.32455,250.098755 1023.25455,244.919755 1026.20455,239.178755 C1014.39455,241.768855 1004.02455,250.718855 993.284545,255.748855 C981.584545,261.238855 969.204545,265.178855 956.484545,267.419855 L955.035324,267.668135 C931.264781,271.633159 902.679945,271.127635 881.384545,258.768855 C880.704545,258.368855 881.194545,257.459855 881.894545,257.568855 C887.934545,258.558855 893.914545,259.728855 899.894545,260.768855 C898.724445,259.698855 898.204445,257.778855 899.554445,256.238855 C904.925413,250.084017 909.172551,243.048845 911.888019,235.350856 L912.407375,233.845502 C913.658001,230.274846 915.770445,224.729789 913.614445,221.508855 C911.554445,218.438855 906.704445,218.858855 903.804445,220.158855 C897.774445,222.878855 893.764445,229.669855 888.684445,233.768855 C883.144445,238.248855 876.844445,241.568855 870.394445,244.538855 L869.03245,245.157679 C857.87616,250.175987 845.956406,254.400424 837.184445,263.258855 C832.464445,268.018855 828.404445,273.968855 827.044445,280.638855 C826.424445,283.698855 826.424445,286.848855 827.244445,289.878855 C827.894445,292.248855 829.254445,293.709855 828.474445,296.118855 C827.454445,299.228855 823.844445,302.948855 821.984445,305.718855 C819.824445,308.919855 817.674445,312.128855 815.524445,315.338855 C811.234445,321.758855 806.964445,328.198855 802.694445,334.628855 C794.154445,347.508855 785.704445,360.448855 777.324445,373.428855 C774.597778,377.655522 771.880001,381.886633 769.171112,386.122189 L765.114745,392.479055 L762.970995,395.830305 L759.314645,401.578155 C759.444645,402.109155 759.434645,402.669155 759.264645,403.158155 C758.641312,404.933711 757.473873,406.147322 756.023481,407.027285 L755.764445,407.178855 C734.424445,440.908855 713.424445,474.858855 692.214445,508.669855 C691.084445,518.988555 690.024445,529.318555 689.104445,539.648555 C687.014445,563.028555 685.584445,586.469555 685.124445,609.938555 C684.904445,621.299555 685.814445,632.728555 686.304445,644.078555 C686.544445,649.495698 686.872608,654.906229 687.30153,660.315185 L687.617067,664.149081 C688.039556,669.417698 688.279112,674.647289 686.384445,679.669555 C684.704445,684.078555 679.584445,685.068555 676.554445,681.709555 C637.024545,680.118955 597.464545,678.908955 557.904545,678.158955 C487.094545,676.798955 416.254545,677.008955 345.434545,678.378955 C309.864545,679.068955 274.284545,680.038955 238.724545,681.238955 C221.204545,681.818955 203.674545,682.638955 186.144545,682.878955 C176.699945,683.007655 161.835392,679.568791 161.073302,668.943148 L161.054545,668.618655 C159.874545,668.938655 158.654545,669.198655 157.404545,669.388655 C156.848055,669.474269 156.313553,669.449937 155.819867,669.334485 L155.574545,669.269255 C141.495826,673.560266 123.687002,667.437636 110.309136,663.8696 L109.204745,663.578455 C96.434745,660.248455 86.174745,655.488455 77.804745,644.908455 C63.154745,626.379455 58.154745,601.498455 55.554745,578.568455 C53.114745,556.988455 52.974745,535.009455 55.944745,513.469455 C54.194645,495.919555 55.904645,477.809555 57.894645,460.358555 C58.874645,451.728555 60.024645,443.108555 61.404645,434.528555 C62.174645,429.738555 63.184645,424.998555 64.214645,420.268555 C64.625895,418.378555 64.9682388,416.343852 65.4895474,414.376811 L65.724545,413.538555 C64.124545,413.748555 62.374545,413.398555 60.684545,412.469555 C56.664545,410.259555 55.494545,405.788555 55.424545,401.509555 C55.204545,388.608555 56.744545,375.339555 58.104545,362.519555 C59.474545,349.719555 61.354545,336.868555 63.814545,324.228555 L64.451121,320.96961 C66.3151277,311.514358 68.4479933,301.753383 72.204545,292.868555 C58.094845,290.469455 44.024845,287.919455 30.334845,283.578455 C23.654845,281.448455 17.074845,278.799455 10.794845,275.568455 Z M747.254445,409.818855 C747.034545,409.869055 746.824545,409.929055 746.614545,409.989055 C740.974545,411.569055 735.274545,412.909055 729.594545,414.349055 C719.774545,416.819055 710.174545,419.579055 701.044545,423.869055 C699.131945,448.00928 696.296593,472.070804 693.601318,496.144687 L693.064445,500.959855 C697.204445,493.278855 701.444445,485.658855 705.874445,478.129855 C719.364445,455.178855 733.164445,432.408855 747.254445,409.818855 Z M69.164545,412.209555 C69.194645,415.078555 68.594645,418.059555 68.274645,420.818555 C67.754645,425.299555 67.334645,429.799555 66.804645,434.278555 C65.724645,443.278555 64.804645,452.288555 64.134645,461.328555 C63.704645,467.099555 63.424645,472.889555 63.174645,478.679555 C68.844745,457.488455 76.354745,436.759455 83.494745,415.998455 C82.3012784,415.872522 81.0812339,415.581211 79.8227006,415.246922 L77.7040443,414.676271 C76.4547873,414.354552 72.4021921,413.357791 69.164545,412.209555 Z M765.114845,392.479155 L765.154845,393.429155 C765.304845,396.799155 763.284845,398.699155 760.834845,399.189155 C762.254845,396.949155 763.684845,394.709155 765.114845,392.479155 Z M116.314545,232.759555 C122.284545,233.288555 128.134545,234.559555 133.714545,236.759555 L134.252961,236.969711 C138.380186,238.562729 144.414545,240.564343 145.764545,244.969555 C146.144545,246.219555 145.124545,247.248555 143.954545,247.349555 C139.474545,247.709555 134.194545,242.908555 130.044545,241.288555 C125.424545,239.488555 120.584545,238.148555 115.684545,237.438555 C104.674545,235.828555 93.194545,237.049555 82.834545,241.059555 C82.224545,241.299555 81.844545,240.328555 82.394545,240.038555 C92.834545,234.358555 104.444545,231.709555 116.314545,232.759555 Z M-10.195155,261.358955 C-10.885555,260.748655 -11.575555,260.108655 -12.255555,259.469655 C-17.6169835,254.397512 -22.3647131,248.478279 -25.8800634,241.973773 L-26.8052452,240.213324 C-29.6683986,234.670117 -33.1842297,226.772631 -26.455555,222.778655 C-22.435555,220.389655 -17.595555,220.988655 -13.115555,222.438655 C-12.825555,222.528655 -12.535555,222.629655 -12.245555,222.728655 C-10.245555,223.429655 -8.31555495,224.268655 -6.59555495,225.068655 C0.874445048,228.498655 7.46444505,233.488655 14.364445,237.889655 C21.8408087,242.659595 29.2231411,245.709703 37.8518146,247.494978 L38.664445,247.658655 C46.764445,249.259655 55.544445,250.288655 61.194445,256.948655 C62.614445,258.629655 61.314445,261.778655 58.864445,260.948655 C43.244445,255.679655 26.714445,254.518655 12.374445,245.868655 C6.43444505,242.288655 0.814445048,238.179655 -5.25555495,234.788655 C-8.47555495,232.987322 -11.8000883,231.412478 -15.3429801,230.332424 L-17.2784802,229.761746 C-18.4121908,229.430739 -19.765555,229.103933 -20.675555,229.429655 C-22.407813,230.029655 -21.8549514,230.956502 -21.3190077,232.574535 L-21.265555,232.738655 C-17.055555,245.759655 -5.05555495,256.658655 6.06444505,263.868655 C8.61444505,265.528655 11.224445,267.049655 13.884445,268.459655 C31.8899351,278.056734 52.036648,282.523379 71.8238848,287.825619 C79.451125,289.95471 84.5280784,291.419255 87.054745,292.219255 C91.274745,291.868255 96.084745,293.359255 99.264745,295.139255 C102.354745,296.868255 104.844745,299.189255 106.724745,301.919255 C106.724745,301.919255 108.534745,303.429255 108.864745,305.769255 C109.814745,307.939255 110.454745,310.278255 110.774745,312.719255 C110.954745,314.149255 110.594745,315.248255 109.914745,316.028255 C111.960102,347.421029 103.480598,378.637087 93.9207362,408.471507 L92.973495,411.41338 L92.364745,413.278255 C82.054745,444.908455 70.224745,476.309455 64.944745,509.288455 C61.414745,531.318455 61.524745,554.118455 64.114745,576.248455 L64.2973497,577.774769 C66.8492632,598.698367 71.7592689,622.17017 85.064745,639.009455 C91.8513522,647.603205 99.8919453,651.422163 110.171799,654.189529 L110.734745,654.339455 C120.034745,656.788455 129.634745,660.259455 139.224745,661.309455 C148.124745,662.278455 155.584745,658.969455 163.594745,655.868455 L163.604545,655.859255 C180.474645,640.929155 188.134645,619.189155 193.794645,597.248155 C208.464645,540.469155 206.644645,481.529155 198.324645,423.919155 C193.984645,393.819155 188.084645,363.979155 182.204645,334.149155 C179.264645,319.239155 176.094645,304.359155 173.464645,289.399155 L171.902653,280.594624 C171.040739,275.703218 170.207145,270.807905 169.494645,265.889155 C168.534645,259.279155 168.244645,252.779155 167.914645,246.129155 C159.834645,232.739055 148.104645,221.709055 134.514645,213.799055 C124.784645,208.129055 114.484645,204.199055 103.854645,201.349055 C73.464545,193.159055 40.334545,193.739055 9.75454505,187.439055 C-0.51849843,185.325142 -10.2700296,182.186503 -20.0163894,178.425709 L-21.345455,177.909055 C-25.815455,176.169055 -30.375455,175.199055 -32.595455,180.469055 C-34.175455,184.219055 -33.235455,188.119055 -30.865455,191.269055 C-25.055455,198.989055 -13.375455,202.569055 -4.58545495,205.349055 C0.704545048,207.029055 6.10454505,208.359055 11.564545,209.349055 C17.024545,210.339055 22.504545,210.589055 27.744545,212.519055 C29.764545,213.259055 30.164545,216.469055 27.744545,217.038055 C21.104545,218.589055 14.424545,217.259055 7.82454505,215.969055 C0.574545048,214.538055 -6.56545495,212.509055 -13.505455,209.939055 C-14.785455,209.467055 -16.110255,208.969455 -17.459375,208.440623 L-18.475455,208.038655 C-17.425455,208.799655 -16.375455,209.549655 -15.315455,210.299655 C-15.035455,210.498655 -15.205455,211.028655 -15.575455,210.898655 C-31.8934877,204.811114 -46.7409481,193.827148 -58.2431417,180.83112 L-58.815455,180.179655 C-62.865455,175.538655 -72.095455,161.498655 -79.875455,165.408655 C-87.181055,169.075855 -74.727551,183.212431 -69.9948431,188.992086 L-69.445255,189.669455 C-64.065255,189.809455 -58.855255,193.158455 -54.495255,195.858455 C-46.925255,200.549455 -39.015255,204.589455 -30.955255,208.368455 C-14.935255,215.898455 2.07474505,221.209455 17.924745,229.118455 C18.134745,229.229455 17.974745,229.498455 17.774745,229.469455 C7.68474505,227.858455 -2.29525495,225.288455 -12.045255,222.099455 L-12.480255,221.96308 L-12.915255,221.818455 C-19.005255,219.818455 -25.015255,217.559455 -30.925255,215.148455 C-37.495255,212.469455 -43.915255,209.459455 -50.145255,206.049455 C-55.785255,202.969455 -62.045255,197.419455 -68.585255,196.599455 C-69.285255,196.509455 -69.905255,196.498455 -70.445255,196.549455 C-77.955155,197.178955 -71.745155,209.618955 -69.645155,213.338955 C-66.215155,219.448955 -62.075155,225.088955 -57.325155,230.238955 C-47.695155,240.698955 -36.025155,248.988955 -23.395155,255.438955 C-19.085155,257.638955 -14.675155,259.578955 -10.195155,261.358955 Z" id="Ink" fill="#000"/></g></g><g id="Head" transform="translate(372.000000, 180.000000) scale(0.9978902953586498 1)"><g id="Head/Long Curly" stroke="none" stroke-width="1" fill="none" fill-rule="evenodd"><path d="M343.4072,146.7179 C277.6372,93.2619 172.2402,75.9049 101.8372,129.8359 C47.1332,180.4489 24.4952,324.2749 34.1762,396.5469 C36.8682,442.9019 72.2832,495.4429 124.2702,480.7819 C133.0982,479.9129 141.6702,476.5289 150.5792,475.8199 C161.2362,474.5929 171.9742,474.5719 182.6102,476.0749 C205.7862,479.3529 226.3312,491.6579 248.8252,497.4109 C290.5642,508.0849 337.1352,500.9049 373.0632,476.8609 C491.7902,398.8029 438.0102,222.2679 343.4072,146.7179 L343.4072,146.7179 Z" id="Skin" fill="#edb98a"/><path d="M334.6483,498.6955 C335.8693,498.2745 337.0883,497.8355 338.2983,497.3855 C338.3783,497.6655 338.5083,497.9345 338.6593,498.1955 C338.8293,498.6155 338.9993,499.0245 339.1883,499.4345 C337.6693,499.4455 336.1483,499.1745 334.6483,498.6955 M332.2093,-19.3255 C331.6693,-20.5345 331.0483,-21.6945 330.3483,-22.8155 C332.0483,-22.2645 333.7493,-21.5045 335.2893,-20.5245 C334.2493,-20.1745 333.2283,-19.7745 332.2093,-19.3255 M72.4193,138.8355 C72.3493,138.8235 72.2803,138.8135 72.2113,138.8015 C73.1033,136.4265 74.6923,134.1845 76.4473,132.5655 C76.7623,132.2745 77.1033,132.0055 77.4333,131.7275 C75.5703,133.9465 73.8803,136.3135 72.4193,138.8355 M547.7683,387.1845 C546.8883,378.8445 545.7683,370.5355 544.3183,362.2745 C542.9283,354.3655 541.7583,345.9055 537.7283,338.8855 C533.7283,331.8955 529.7183,325.1045 524.9593,318.9555 C525.6383,315.8155 526.5393,312.8655 527.3183,310.4855 C531.8183,296.7855 536.2493,279.3855 526.8983,266.6555 C524.7283,263.7055 522.0793,261.4455 519.0483,259.4055 C517.7583,258.5355 515.6193,257.7455 514.6283,256.5455 C513.9283,255.6955 514.1693,256.1555 514.1383,255.7355 C513.9683,253.4755 519.2683,248.7055 520.5083,246.9155 C522.8293,243.6045 524.5583,239.8755 525.8783,236.0655 C531.0983,220.9855 527.5483,204.3755 524.4093,189.2645 C522.7493,181.2555 520.9193,173.2255 520.3183,165.0455 C519.7583,157.3655 520.8083,149.8655 521.4283,142.2255 C522.0293,134.6845 521.8693,126.9055 518.6383,119.9245 C517.0583,116.5245 514.6693,113.5245 511.7583,111.1845 C508.9193,108.8955 505.3783,107.5655 502.6093,105.2855 C499.8483,103.0145 500.6383,99.9455 501.3593,96.8055 C502.3483,92.5455 503.5983,88.3155 503.7183,83.9155 C503.9383,76.2455 500.8083,68.7745 495.9193,62.9755 C490.8783,56.9855 483.6783,52.9345 475.8983,52.0245 C472.3383,51.6045 468.8383,52.3155 465.2983,52.0655 C461.7983,51.8255 461.0393,50.0755 460.3783,46.8755 C458.8593,39.5455 459.4783,32.3055 455.8693,25.4655 C452.6693,19.3855 446.9783,15.2645 440.6883,12.8355 C429.1593,8.3755 415.7493,9.2955 403.5883,11.9245 C396.4093,-9.1945 373.9993,-23.0445 351.9493,-23.2145 C348.5083,-29.0545 342.6783,-33.4145 336.0293,-35.9755 C325.0293,-40.2255 313.3783,-37.7445 301.9193,-37.7445 L301.8693,-37.7445 C300.7183,-37.8155 299.5683,-37.8445 298.4193,-37.8345 C297.3383,-37.8955 296.2583,-37.9855 295.1783,-38.1045 C282.1383,-39.6455 269.2383,-44.9855 256.3183,-39.7545 C250.5583,-37.4245 245.9783,-33.8345 243.0793,-29.2545 C238.7093,-28.0655 234.3983,-26.7045 230.1693,-25.1245 C211.8383,-24.6455 193.6783,-14.8155 184.4093,1.1155 C171.3593,-0.3645 157.1993,2.1455 148.5683,12.8055 C146.3203,15.5795 144.5793,18.8385 143.4253,22.2985 C134.6253,25.1445 126.4823,30.2155 121.1533,37.8535 C116.2903,44.8235 115.3563,53.8355 118.6453,61.3175 C110.7893,67.0085 104.6503,75.1555 101.6933,84.7755 C99.8963,90.6205 99.6293,96.6595 100.7853,102.4125 C92.7423,104.1965 85.0493,107.5035 78.2333,112.4665 C71.0903,117.6655 62.1693,125.9405 61.6993,135.4645 C61.6643,136.1635 61.6913,136.8625 61.7473,137.5595 C46.0223,136.4545 29.9883,139.1185 19.3593,151.7255 C11.3783,161.1845 7.9093,173.3655 10.0393,184.4555 C-8.6707,188.2555 -26.3617,198.0355 -38.7017,212.4955 C-47.6707,223.0055 -55.6407,236.3655 -55.1617,250.6745 C-55.0117,254.9855 -54.0007,259.3255 -52.2507,263.3355 L-52.2507,263.3445 C-53.0007,264.7555 -53.7717,266.3255 -54.5117,267.9955 C-66.1017,276.1045 -74.5217,288.8155 -79.2617,302.8255 C-83.0907,314.1745 -85.5007,328.9155 -81.4117,340.4655 C-80.7907,342.2255 -80.0007,343.8855 -79.0807,345.4245 C-79.8517,346.2455 -80.5807,347.0655 -81.2907,347.8955 C-89.1017,357.0245 -97.0117,368.5245 -96.4707,381.0945 C-96.2507,386.1555 -94.3717,391.2455 -91.3007,395.4245 C-102.1017,406.3755 -110.8007,420.1955 -109.9417,435.6255 C-109.2017,449.0555 -101.8307,462.6955 -90.2817,469.1455 C-92.2107,479.4955 -89.6307,490.4155 -81.5717,498.4955 C-77.5507,502.5355 -72.8117,505.1955 -67.7907,506.6155 C-66.6707,518.8055 -55.8517,528.6155 -44.3617,531.4345 C-42.2207,531.9655 -40.0807,532.2855 -37.9517,532.4345 C-27.6117,537.5055 -15.2817,536.9245 -4.7317,532.2745 C-1.6217,536.2255 2.4283,539.4455 7.1483,541.7555 C9.0583,542.6955 11.0793,543.4755 13.1883,544.1045 C28.0883,548.5145 43.3693,542.5355 56.3983,535.5555 C56.8183,535.3355 57.5883,535.0555 58.2683,534.7455 C60.0683,536.7555 63.3483,538.7455 65.0583,539.7255 C70.8593,543.0555 77.9493,544.6045 84.6093,544.1655 C92.4193,543.6455 99.3083,541.0655 105.6883,537.3955 C106.6193,537.5555 107.5583,537.6455 108.4993,537.6955 C114.4993,538.0145 119.8483,536.1155 124.6593,533.1155 C127.8383,533.5355 131.0983,533.4955 134.3983,532.9155 C141.6693,534.7645 148.7493,531.8255 154.4383,527.1555 C156.9593,525.0855 159.0883,522.6555 161.3693,520.3355 C163.7383,517.9245 165.5393,517.3655 168.3083,515.7455 C174.8593,511.9155 175.6483,502.2055 172.8083,495.1845 C173.3483,493.9555 173.6593,492.5855 173.6593,491.0655 C173.6383,477.8055 167.5293,465.6455 160.0293,455.0355 C156.6783,450.3055 153.0393,445.6745 149.0483,441.4755 C145.8383,438.1045 141.3293,432.6355 136.5793,431.2645 C136.2893,431.0555 135.9883,430.8445 135.6883,430.6455 C136.6093,427.4245 137.1483,424.1455 136.9193,420.7955 C136.6783,417.3545 135.5683,414.0945 133.7893,411.3155 C139.7583,399.7455 142.2793,387.0555 141.0793,373.8155 C145.9383,366.9245 149.6193,359.3155 151.5183,350.9755 C152.6883,345.8155 153.3593,340.3855 153.2683,335.0945 C153.2283,332.5555 152.2983,329.3445 152.2793,326.7155 C152.4193,327.5455 153.4993,324.4455 153.9193,323.6745 C158.7383,314.7255 164.9283,307.7455 165.9593,297.1955 C166.5583,291.0245 165.0983,284.2055 161.3983,279.1455 C163.7683,269.8055 163.7383,259.7745 160.0083,250.8655 C159.0083,248.4855 157.8593,246.1555 156.5393,243.9455 C157.1483,242.0855 157.7093,240.2055 158.4283,238.5145 C158.7093,237.8445 158.9883,237.1655 159.2683,236.4855 C161.9783,234.0945 164.4993,231.4855 166.6193,228.9245 C171.3183,223.2555 174.9093,216.7555 175.3593,209.2645 C175.5793,205.5145 174.6993,201.9245 173.6093,198.3655 C173.1283,196.7555 172.8383,194.9655 172.2683,193.3955 C171.9493,192.5245 171.1783,191.6355 170.9093,190.8155 C170.8483,190.6355 170.7983,190.4855 170.7583,190.3655 C170.7983,190.2455 170.8293,189.9955 170.8293,189.5245 C170.8383,185.9345 171.3083,182.4245 171.3293,178.9655 C174.6193,182.2855 178.5793,184.7645 183.0793,186.2155 C192.1483,189.1255 201.6093,187.8055 209.6383,183.3155 C218.2793,189.2355 227.9883,194.5945 238.1693,196.7455 C244.2183,198.0245 250.2793,197.4955 256.3483,198.2855 C262.3783,199.0755 268.2093,201.7055 273.8883,203.7555 C286.5293,208.3255 299.1383,213.0145 311.8183,217.4655 C322.0583,221.0555 333.1383,223.9055 343.8593,221.8855 C346.8693,226.5245 350.7793,230.4455 355.7893,233.3255 C359.3783,235.3755 363.3183,236.7645 367.3883,237.4555 C370.9883,238.0655 375.2093,237.8255 378.1283,240.2955 C380.9783,242.6955 382.7583,246.2745 385.3183,248.9755 C388.1693,251.9955 391.6883,254.6155 395.3783,256.4955 C398.3383,258.0055 401.3593,259.0945 404.4283,259.8055 C404.1593,266.6355 403.8983,273.4555 403.8183,280.2955 C403.6693,295.1555 403.7283,310.0145 403.5293,324.8755 C403.3293,339.6845 402.8593,354.4955 402.0793,369.2855 C401.3383,383.1655 400.2983,397.0945 396.9883,410.6355 C386.0083,455.5655 344.8783,487.7355 298.8383,489.3755 C285.1693,489.8655 271.6383,487.9455 258.5683,483.9245 C245.0293,479.7555 232.9383,471.1745 219.0583,468.5355 C215.4283,467.8545 212.0083,471.5055 214.0883,475.0145 C217.6693,481.0455 222.0183,484.7255 227.9683,488.3545 C234.1993,492.1455 241.1383,494.9555 247.9883,497.4155 C260.5883,501.9345 273.9193,504.5555 287.2893,505.2855 C297.4883,505.8445 307.7283,505.1455 317.7183,503.2255 C318.4193,505.3755 319.6593,507.4655 320.5983,509.4555 C320.7383,509.7455 321.2093,509.5455 321.1193,509.2455 C320.9683,508.7455 320.8693,508.3055 320.8293,507.9455 C324.1883,512.3255 329.3783,515.3545 334.7093,516.8255 C338.4683,517.8655 342.4593,518.1845 346.3293,517.7455 C347.5793,517.6045 348.7683,517.3955 349.9493,517.1355 C353.8883,520.5855 358.9283,522.8855 363.9883,524.0355 C363.1193,529.3155 365.7283,535.0755 371.7793,536.5755 C374.3183,537.2055 376.7583,537.2155 379.1993,536.9855 C381.1693,537.9055 383.2893,538.6255 385.5393,539.1155 C388.4683,539.7555 391.9683,538.9345 394.1783,536.8155 C395.3883,537.6655 396.5183,538.2555 397.6383,539.6045 C402.2493,545.1655 412.1883,540.7355 412.6283,534.3055 C414.0883,534.3055 415.5583,534.3255 417.0293,534.3755 C417.3783,534.5355 417.7283,534.6955 418.0883,534.8655 C424.5183,537.8545 431.1783,540.4655 438.2893,538.1155 C439.5983,537.6845 440.7983,537.1355 441.8883,536.4955 C446.8983,536.9455 451.8383,536.9555 456.9193,535.3155 C459.9193,534.3445 462.7383,532.8055 465.0883,530.7855 C472.9283,533.0855 481.1993,534.1255 488.9993,531.2745 C494.8383,529.1455 499.5393,525.7855 502.8483,521.3545 C507.9093,521.5355 513.0483,520.3155 517.6783,517.9055 C525.5983,513.8055 531.1483,506.0145 535.0183,498.2055 C543.5393,480.9755 548.5793,462.4655 550.5583,443.3755 C552.5083,424.5755 549.7283,405.8755 547.7683,387.1845" id="Ink" fill="#000"/></g></g><g id="Face" transform="translate(531.000000, 366.000000) scale(1 1)" fill="#000"><g id="Face/Cute" stroke="none" stroke-width="1" fill="none" fill-rule="evenodd"><path d="M177.5335,205.3371 C180.9645,199.2831 191.2025,200.2671 192.7675,207.3281 C195.9425,221.6421 178.8735,234.8601 165.9095,235.1901 C153.0265,235.5171 138.5715,224.5521 140.4365,210.7021 C140.8975,207.2761 145.4735,207.6921 147.0335,209.8401 L147.639154,210.664134 C151.876221,216.356303 157.466992,222.247946 165.3305,220.8601 C168.5895,220.2861 171.5495,218.2501 173.5195,215.6291 C175.8955,212.4661 175.6345,208.6891 177.5335,205.3371 Z M95.6148,100.6165 C97.3608,100.1355 99.1228,100.3215 100.6698,100.9795 C104.1238,101.6125 107.0088,104.4925 108.0228,107.7805 C108.1028,108.065167 108.192133,108.346278 108.290504,108.624426 L108.4448,109.0395 L108.0308,107.9855 C108.2218,109.0235 109.0668,110.1145 109.3708,111.1565 C109.7448,112.4375 109.8358,113.8925 109.7098,115.3025 C110.8078,115.3135 111.9058,115.3505 113.0018,115.4455 L114.060904,115.540412 C119.98388,116.090875 126.486479,117.100575 129.9978,122.2185 C131.9698,125.0945 130.1188,130.2725 126.4958,130.8265 C120.9188,131.6795 116.1148,128.5935 110.5568,127.9755 C105.3028,127.3905 99.8048,127.7255 94.6188,128.6745 C83.91192,130.63194 74.0731872,134.971716 63.6392483,137.694821 L62.2188,138.0555 L62.2188,138.0555 L62.2208,138.0485 C60.4328,138.4805 58.4028,135.9945 60.1718,134.5405 C68.5308,127.6735 79.2328,122.1085 89.7758,118.7195 C88.2398,116.2765 87.7648,113.0585 88.8148,110.4355 C88.9774,109.8919 89.17924,109.36342 89.392024,108.836452 L89.8358,107.7525 L89.8358,107.7525 C89.8788,107.2415 89.9768,106.7365 90.1188,106.2415 L90.1418,106.0905 L90.1418,106.0905 L90.1548,106.0995 L90.1548,106.0995 C90.9398,103.5485 92.9898,101.3405 95.6148,100.6165 Z M202.2598,101.0113 C204.546011,98.7241158 207.758477,99.0621123 210.144209,100.862169 L210.4608,101.1103 L210.4608,101.1103 C212.7098,102.1093 214.5708,104.2923 215.7928,106.3153 C217.0618,108.4163 217.9048,110.5563 217.9378,112.8693 C223.4718,112.8873 228.7728,114.5473 232.8358,119.0153 C234.1478,120.4573 235.0438,122.6813 234.3218,124.6363 L233.8918,125.7993 L233.8918,125.7993 C232.527456,129.491691 226.393723,131.617218 224.308978,127.274981 L224.2128,127.0633 C221.9978,121.9073 213.4948,122.4483 208.9758,122.9753 C205.8258,123.3443 202.7148,124.1273 199.6728,125.0043 C198.60105,125.3133 197.538863,125.648737 196.4778,125.991206 L195.4168,126.3353 C194.8508,126.5183 191.9028,128.1193 193.7368,127.7403 C194.2298,127.6383 194.6008,128.3563 194.0978,128.5973 C191.9118,129.6423 189.5798,127.5613 189.7258,125.2133 C189.97864,121.13748 196.45103,118.902747 199.565401,117.497319 L199.7518,117.4123 C200.9458,116.8603 202.1968,116.3313 203.4878,115.8403 C202.7618,114.7603 202.1618,113.5603 201.6628,112.2723 C201.1908,111.0563 200.8758,109.8743 200.7028,108.5813 C200.5328,107.9493 200.5328,107.3173 200.7028,106.6843 L200.7288,106.5033 L200.7288,106.5033 C200.6408,106.0853 200.5988,105.6533 200.6048,105.2183 L200.5868,105.0493 L200.6048,105.0493 C200.6658,103.5263 201.2708,102.0003 202.2598,101.0113 Z M165.7316,144.4161 C174.5146,147.1301 189.0046,154.5231 184.4276,165.9341 C178.0366,176.4141 161.0876,168.7121 152.8746,165.3261 C145.4956,162.8821 141.6536,173.2231 148.7886,176.3401 C207.7476,199.6651 207.5306,138.1061 167.8696,139.0101 C163.5026,139.1091 163.3656,143.5141 165.7316,144.4161 Z M87.7267006,64.1488907 L89.2249,63.7117 C97.0099,61.4567 104.9569,57.5627 111.8689,63.6387 C114.5829,66.0247 115.1419,70.9827 113.1999,73.9587 C108.7759,80.7397 102.2149,79.7037 95.0699,80.2817 C89.6299,80.7217 84.2709,82.3197 79.1929,84.3167 C75.0429,85.9497 71.1939,88.2487 67.5599,90.8127 C63.9899,93.3337 61.5509,97.2747 57.8889,99.5437 C56.5469,100.3757 54.9969,99.5197 54.5149,98.1707 C52.8069,93.3857 55.6929,87.4247 58.1349,83.3477 C61.1159,78.3737 65.6439,74.3057 70.5129,71.2277 C75.8445923,67.8566231 81.7403556,65.9102089 87.7267006,64.1488907 L87.7267006,64.1488907 Z M201.1644,59.0001967 C214.3234,58.9962 226.9854,66.3152 234.3454,77.0442 C236.8464,80.6892 235.0134,86.0892 231.4234,88.1882 C227.395949,90.5440824 223.089759,88.8476771 220.435649,85.471752 L220.2784,85.2672 C216.0574,79.6462 210.6164,75.2192 204.1664,72.3372 C201.0194,70.9302 197.5394,69.7892 194.1354,69.2102 L193.035296,69.021688 C191.49344,68.76332 189.7048,68.5166 188.3104,68.7582 C187.5634,68.8562 186.8774,69.1032 186.2454,69.4792 C186.5494,70.1432 185.7644,70.9432 185.0394,70.5452 C181.7694,68.7492 182.1704,65.5452 184.8714,63.0552 C188.6924,59.5322 196.2294,59.0012 201.1644,59.0001967 Z" id="Ink" fill="#000"/></g></g><g id="Beard" transform="translate(494.999934, 517.999659) scale(1 1)" fill="#000"><g id="Beard/None" stroke="none" stroke-width="1" fill="none" fill-rule="evenodd" fill-opacity="0"/></g><g id="Mask" transform="translate(400.000000, 480.000000) scale(1 1)" fill="#000"><g id="Mask/None" stroke="none" stroke-width="1" fill="none" fill-rule="evenodd" fill-opacity="0"/></g><g id="Accessories" transform="translate(419.000000, 421.000000) scale(1 1)" fill="#000"><g id="Accessories/Glasses 2" stroke="none" stroke-width="1" fill="none" fill-rule="evenodd"><path d="M372.3111,95.4577 C360.1701,108.0027 339.9021,111.6027 323.7491,104.8747 C282.2731,87.5457 302.5741,33.4957 334.5611,18.9807 C338.5571,17.9847 343.8941,15.6217 348.7611,15.0857 C349.2011,14.8697 350.1591,15.4947 351.3201,14.9037 C386.5911,18.8417 394.6231,73.5937 372.3111,95.4577 M238.5331,98.6687 C224.9161,116.7297 199.6001,122.3017 178.9161,113.9057 C138.0541,97.8137 152.5471,49.8847 180.5041,31.0947 C239.5611,8.9037 263.9481,65.3677 238.5331,98.6687 M149.9531,58.6507 C149.9151,58.6327 149.8771,58.6237 149.8381,58.6057 C150.0541,58.5107 150.2701,58.4157 150.4851,58.3187 C150.4151,58.5017 150.3391,58.6827 150.2711,58.8657 C150.1651,58.7927 150.0721,58.7077 149.9531,58.6507 M400.4231,39.1277 C397.0891,39.1347 392.2731,39.6827 389.5131,41.9957 C382.7071,19.0427 357.5851,-2.2003 335.7371,13.2897 C318.5321,18.8227 305.7651,31.0937 298.5091,47.4077 C285.4261,39.6257 264.8541,42.9487 253.5091,53.2397 C246.0791,28.6887 227.7931,20.0917 206.0281,18.8227 C182.2721,14.9317 158.5941,38.0027 151.2061,56.5107 C145.0631,55.8117 135.8841,53.8567 130.1051,57.6477 C92.5981,47.8117 27.0231,42.3887 19.3981,47.8537 C13.9641,49.9387 10.9821,62.7647 18.5721,63.4567 C25.1861,62.5177 17.8001,54.0587 24.4671,53.1357 C59.9901,50.9337 94.4751,58.0877 129.6221,61.0897 C132.7601,65.3107 142.8991,66.7227 148.3081,65.0267 C139.7891,96.4227 158.1791,117.7827 185.7341,124.1807 C228.4011,133.9817 265.5221,95.8137 254.3651,56.1137 C267.2901,49.6837 282.1571,49.9597 296.2371,53.3467 C272.7091,139.9367 412.1661,136.0517 390.3851,44.9627 C404.8801,52.1727 408.0281,40.5827 400.4231,39.1277" id="Ink" fill="#000"/></g></g></g></svg>