<svg viewBox="-65.5 123.41249999999991 1146.2499999999998 3003.0375" xmlns="http://www.w3.org/2000/svg" overflow="visible" xmlns:xlink="http://www.w3.org/1999/xlink" width="1146.2499999999998px" height="3003.0375px"><g id="Master/Character/Standing" stroke="none" stroke-width="1" fill="none" fill-rule="evenodd"><g id="Standing" transform="translate(-121.000000, 634.000000) scale(1 1)"><g id="Standing/Ease 2" stroke="none" stroke-width="1" fill="none" fill-rule="evenodd"><path d="M1136.91928,1005.63101 C1163.25566,1006.22302 1151.96268,759.995263 1134.3763,714.622075 C1131.91362,705.426762 1129.87985,692.862245 1130.28945,681.578872 C1152.04095,683.757851 1149.69921,668.839747 1148.57611,650.851028 C1148.94506,636.567298 1149.93603,607.095802 1128.11948,618.571347 C1062.71355,487.360427 1133.4331,148.181486 961.221124,116.235522 C940.469742,111.185332 919.022141,105.959501 901.550609,91.54249 C883.063716,57.2997638 873.647993,52.9263075 843.014371,50.7111669 C837.341967,19.8665738 826.739116,-13.0846759 795.141967,-25.0871425 C766.21281,-36.4459372 732.544284,-37.3520371 702.379212,-31.2903627 C677.411895,-23.1302972 675.128094,23.3721578 669.581722,46.299483 C635.954867,37.3645315 594.513085,18.5719977 576.409366,61.1731603 C567.641076,58.5468136 559.516153,60.2515626 550.60557,63.1744324 C475.927223,75.2316576 403.471693,109.083841 375.773369,179.718311 C358.663668,222.104572 370.806331,268.245413 377.222724,312.144252 C383.207155,359.945415 367.426876,404.230663 360.112006,450.209296 C349.220503,513.523676 347.250763,564.308667 354.358292,611.366974 C335.571567,615.64951 334.186245,632.772423 341.786717,650.689852 C344.018682,656.75256 346.266909,663.144852 351.202439,666.571914 C361.242218,672.905315 374.218311,665.606923 385.129125,664.490054 C387.398697,689.773033 391.793513,714.581781 399.064679,742.776264 C396.958745,751.216322 394.543831,760.641001 392.374882,769.116187 L391.64309,768.319604 C366.73269,872.872381 292.64689,974.430999 315.672926,1085.54758 C317.026741,1089.24946 319.596144,1088.47768 321.568933,1088.41362 C332.999116,1092.76848 343.498297,1090.00472 355.025036,1090.44899 C382.365594,1090.46862 408.780233,1093.9773 433.284082,1097.03139 C437.763258,1126.35204 452.325917,1174.35364 478.296399,1185.53266 C478.733441,1185.68247 486.431486,1184.07381 487.074853,1184.02731 C417.938812,1464.9276 293.544352,1724.67143 244.132136,2011.23252 C243.839419,2014.72984 249.517921,2012.87838 251.380941,2013.30405 C251.12583,2021.25644 256.253456,2023.16783 263.433147,2025.99565 C254.181062,2045.37709 245.846765,2064.73374 236.636351,2084.16478 C232.365532,2093.78267 225.405378,2103.28277 224.136938,2113.56499 C213.940638,2120.09469 207.072974,2132.85862 207.254906,2144.77223 C179.758841,2156.41721 187.232266,2213.93545 180.959183,2242.42439 C174.61597,2284.86541 144.4448,2314.50324 123.757449,2349.29976 C119.541514,2356.28509 115.052174,2365.43805 114.852964,2374.21079 C102.028311,2380.23527 97.2462543,2393.39593 98.0949297,2415.5463 C98.0491927,2441.46366 105.344751,2451.33157 125.016741,2451.95871 C178.449747,2457.30852 240.801466,2455.12954 294.544467,2449.04514 C334.748302,2443.92263 370.374371,2448.17314 361.385527,2399.76653 C359.53572,2388.04715 363.088976,2372.26944 356.167444,2362.78587 C351.899674,2334.55419 354.382685,2306.09728 363.584968,2278.20655 C369.179414,2254.72268 378.630878,2206.21314 374.714504,2174.6954 C372.903208,2160.11865 343.207059,2152.098 337.979829,2151.3882 C339.642622,2140.41582 338.910715,2121.24153 333.018774,2113.61561 C343.838114,2112.10407 346.557593,2109.23803 348.810903,2097.19733 C354.195671,2077.69707 354.912218,2056.52408 368.247092,2040.09444 C392.230556,2040.40336 416.133725,2034.30449 440.103976,2033.56266 L441.297203,2030.80407 C455.474655,2030.62223 469.572829,2028.11263 483.02967,2023.19159 C486.013754,2024.60498 489.831269,2025.81897 491.508292,2021.29364 L499.513282,1996.21006 C592.697834,1699.06404 695.988229,1401.20098 796.701091,1106.2329 C802.579819,1091.89131 809.649742,1076.65085 818.843894,1063.8704 C821.958075,1244.3496 859.689063,1424.63663 862.929275,1605.02904 C867.307829,1729.12651 866.180667,1851.92114 877.830387,1976.4608 C880.828701,2002.81829 884.016062,2001.94112 887.942329,2000.32419 C889.515681,2000.57009 893.218345,2001.36254 894.825238,2001.70039 C892.198918,2027.89257 889.177227,2070.40797 877.967598,2097.19733 C853.190344,2101.02837 857.627849,2120.0792 863.123403,2135.86931 C857.21215,2140.92879 858.052695,2152.72112 859.806962,2159.24773 C836.494308,2159.27253 831.411404,2178.27273 833.015248,2190.26383 C835.232984,2210.31581 833.991987,2241.52139 847.345156,2258.64533 C855.20887,2280.48369 868.00913,2301.09462 873.008692,2324.62119 C876.151331,2341.93214 874.937776,2367.14804 877.967598,2384.31951 C870.34375,2387.84783 873.574236,2393.38051 872.288518,2404.08427 C865.689178,2453.08082 888.919067,2444.75227 929.992921,2448.12561 C954.61162,2453.57357 1142.03471,2464.41371 1133.93519,2431.81478 C1135.31645,2418.53943 1129.15517,2412.71133 1126.51665,2399.64056 C1125.33156,2396.17113 1101.9813,2356.02664 1088.05387,2340.82648 C1041.34217,2296.84912 1043.38204,2237.80614 1044.86189,2169.79596 C1042.11462,2151.36297 1027.9636,2133.7121 1009.90663,2135.69581 C1015.09117,2116.00854 1005.48132,2098.89171 985.399732,2093.19888 C987.406062,2070.90903 989.518094,2040.62343 996.861423,2021.34116 L989.944973,2014.28557 L999.203157,2015.39417 L1002.27668,2007.63911 L1005.6287,2016.13703 C1021.52281,2016.13703 1039.45578,2012.60458 1054.68111,2010.94426 C1057.11331,2011.08167 1056.02782,2007.77033 1056.42725,2006.49332 C1070.80493,2003.50949 1072.3793,1995.85465 1069.83835,1977.61383 C1073.18732,1681.4452 1071.7339,1388.05685 1067.15613,1091.33959 C1089.62621,1092.34384 1111.53728,1084.13108 1133.6191,1078.65832 C1141.46452,1083.59176 1143.68734,1066.02355 1142.76955,1062.23074 C1141.52449,1042.6003 1139.10043,1023.45235 1136.91928,1005.63101 Z" id="Skin" fill="#edb98a"/><path d="M924.656928,778.351023 C938.379504,874.146891 948.821883,940.465567 955.984065,977.30705 C956.208056,978.456028 958.31507,979.669077 959.978505,979.371631 L960.148907,979.335408 L962.40681,978.776514 L966.172451,980.188101 L969.324565,981.364226 L996.055824,991.228992 L1003.40306,993.961925 C1028.38488,1003.29522 1042.71465,1009.11888 1058.95105,1016.68854 L1068.70752,1021.27091 L1063.76956,1028.53704 C1063.73624,1028.58608 1063.70182,1028.65399 1063.66766,1028.74176 L1063.63362,1028.83617 L1063.613,1028.902 L1063.90143,1029.68877 C1068.55003,1042.58629 1069.38806,1054.09436 1068.48469,1073.91407 L1068.40412,1075.61146 L1068.19766,1079.70828 L1068.039,1082.92 L1068.0362,1083.18806 C1068.02222,1083.91151 1067.97439,1084.55958 1067.87667,1085.4163 L1067.8317,1085.79707 L1067.54881,1087.97228 L1067.47637,1088.61474 C1067.46372,1088.74152 1067.4533,1088.85807 1067.44497,1088.96525 L1067.42609,1089.25955 L1067.41888,1089.50283 L1067.419,1089.562 L1069.17083,1091.51547 L1068.96723,1094.66038 C1068.29866,1104.98776 1060.73133,1945.64873 1065.90137,1986.29163 L1066.06021,1987.36539 L1066.1612,1987.93932 L1066.17233,1988.52196 C1066.20217,1990.08492 1066.02148,1991.49162 1065.65536,1993.19009 L1065.51045,1993.83727 L1065.0909,1995.60318 C1064.99461,1996.02162 1064.93284,1996.31728 1064.89291,1996.55139 L1064.86374,1996.73841 L1064.836,1996.977 L1065.38477,1998.28284 L1065.09126,2003.08337 L1065.04441,2003.95508 C1065.01668,2004.51394 1064.9959,2005.03222 1064.98173,2005.53369 L1064.82007,2012.81754 L1055.42942,2013.37415 C1039.25825,2014.3011 1025.09,2014.74559 1000.39807,2015.17638 L997.501588,2015.22605 L970.15173,2015.65714 C942.591429,2016.12168 924.523326,2016.71084 906.171938,2017.92198 L900.110867,2018.33769 L897.742079,2016.18714 C897.607119,2016.06461 897.233836,2015.98547 897.002708,2016.02332 L896.913466,2016.04692 L885.489917,2020.59618 L886.737,2007.694 L886.296606,2007.60172 L887.156024,2000.43771 L887.229113,1999.74598 C887.682931,1995.1307 887.468923,1990.38665 886.642047,1982.32003 L886.113922,1977.24757 C885.614115,1972.32938 885.378846,1969.32684 885.298558,1966.22254 L885.290544,1965.88946 L885.269,1964.553 L884.907973,1959.57015 C882.480235,1925.84888 877.005185,1800.36246 868.482823,1583.11089 C866.864972,1552.54374 850.312398,1388.39982 818.825102,1090.67912 L818.641027,1083.18569 L818.564,1080.538 L817.794481,1081.85265 L816.877813,1083.43054 L815.711423,1085.45639 C802.167101,1109.10008 790.88307,1132.9934 785.579911,1151.1813 L785.272747,1152.25076 L782.283155,1160.23131 C689.101276,1409.19578 599.443896,1669.4008 491.638912,1998.9519 L484.000384,2022.32479 L481.031047,2023.69621 C460.731722,2033.0717 439.532963,2034.92724 410.437057,2032.01742 L409.474981,2031.91977 L407.554442,2031.71648 C404.225411,2031.35472 401.224029,2030.99527 397.27949,2030.48442 L394.650939,2030.14022 L381.298527,2028.34784 C376.206523,2027.67147 372.876496,2027.25535 369.536118,2026.88495 L366.827998,2026.59431 L362.894307,2026.20937 L359.685365,2025.9059 C319.233868,2022.14312 286.145379,2021.46933 254.673161,2024.52104 L253.431663,2024.64344 L246.20915,2025.38434 L244.445675,2018.69783 C244.103005,2017.29207 243.925372,2015.81316 243.892341,2014.24899 L243.892341,2013.65841 L243.901801,2012.96462 L244.451282,2010.15168 C253.478049,1964.35605 290.237936,1832.82459 354.730942,1615.55728 C365.68167,1580.01496 413.053059,1427.7454 428.580083,1377.31138 L430.350167,1371.55333 L432.550448,1364.36405 C455.293798,1289.93142 467.550576,1246.70621 470.635188,1228.90612 L470.812592,1227.84803 L470.858845,1227.56198 L470.92703,1227.28036 L472.790976,1219.44201 L473.621009,1218.26382 C475.920048,1215.00045 477.028149,1211.21283 477.707797,1204.79638 L477.814375,1203.7325 L477.907246,1202.7016 L479.126975,1187.74292 L489.928736,1195.60111 L490.769834,1196.20478 C497.85077,1201.21678 503.184094,1203.19769 506.503445,1202.79785 L506.73,1202.765 L506.721994,1202.70691 L521.200496,1199.02388 L522.353946,1202.29659 L522.937886,1203.93675 C524.217409,1207.40602 526.839243,1209.75396 529.100773,1210.11693 C530.551355,1210.34975 531.70927,1209.67625 532.758119,1206.96997 L532.859286,1206.70169 L532.91,1206.558 L532.975138,1206.22129 L533.140653,1205.32651 C534.965551,1195.20858 535.064478,1185.78009 534.0424,1167.8785 L533.949323,1166.27672 L533.496938,1158.7787 C532.768077,1146.28319 532.60441,1139.60018 533.009694,1131.91654 L533.083986,1130.60092 L537.004812,1065.33463 L550.394266,1144.08499 L555.545654,1174.16874 L556.346533,1179.00606 L556.556671,1180.23575 C559.268045,1195.8277 562.56353,1204.16601 568.997225,1208.28807 L569.334,1208.498 L569.32302,1205.98572 L569.288339,1201.02946 C569.266967,1198.5154 569.239554,1195.94264 569.206127,1193.2895 L569.110042,1186.47665 L569.004521,1180.12717 L567.949144,1126.9015 L581.726055,1136.86759 L582.079019,1137.11682 C582.669978,1137.53024 583.184896,1137.86427 583.621432,1138.12328 L583.883,1138.274 L584.236632,1137.70068 C591.632693,1125.49655 593.202529,1111.88359 589.790701,1096.05833 L589.63695,1095.35872 L589.485575,1094.69427 C586.395771,1081.35909 580.523199,1068.02329 570.043173,1048.80319 L569.563629,1047.92547 L568.018086,1045.11831 L563.394874,1036.82218 L560.11696,1030.92718 L558.771552,1028.47822 C557.918431,1026.91695 557.145791,1025.48492 556.4107,1024.10126 L556.136717,1023.5845 L550.680685,1013.20576 L561.37618,1011.82464 C568.311517,1010.92907 556.351247,895.928003 636,844 C694.713728,805.720849 790.932704,783.837856 924.656928,778.351023 Z" id="Pants" fill="#FFCF77"/><path d="M395.588076,737.836925 C400.205941,754.162956 405.372256,778.354185 410.784991,794.467138 C420.514677,839.123046 427.813479,884.463475 432.591175,929.918164 C434.190575,945.114739 435.441389,960.311313 437.276598,975.435177 C435.410631,985.271921 439.245312,1013.22558 437,1023 C398.094585,1030.23266 343.74036,1061.07296 312.555128,1085.68247 C302.522991,1003.08914 348.556839,910.585869 368.253045,832.572285 C369.559983,827.559634 370.862542,822.496692 372.111196,817.396457 C377.740616,801.533028 388.768534,761.646934 392.674224,745.693118 L393.199813,743.517174 L393.931605,744.313757 L395.588076,737.836925 Z M898.756501,88.9765627 C903.132066,91.7288307 907.685993,94.0530668 912.357665,96.0662333 C948.717742,117.014887 1012.54926,117.653379 1034.52384,158.666283 C1091.29326,276.953991 1093.06168,477.113102 1125,618 C1126.76169,625.771208 1143.21172,617.459213 1145,625 C1149.43869,643.716951 1144.81233,661.711762 1150,678.672236 C1129.75016,683.898071 1077.19858,687.326948 1057,692.672236 C1062,710 1115.94705,850.251906 1137.35338,1050.17879 C1129.60142,1048.43373 1122.03502,1045.90962 1114.63267,1043.01157 L1111.79268,1041.77717 C1070.14453,1023.6226 1004.68559,995.383819 959.492089,988.102666 C930.868973,813.523504 904.710764,628.044918 901.448778,449.750186 L901.310496,441.521202 C900.344791,388.780206 893.892875,336.512947 885.785361,284.467262 L885.339387,280.807378 C880.94694,244.56294 877.211051,206.807444 885.724871,171.01751 C888.479747,171.858952 880.588521,152.597619 877,128 C874.777481,112.76568 880.937121,95.1538958 872,80 C859.5891,58.9559196 842.701837,85.8640247 844,80 C844.652554,77.052302 827.60774,41.2354552 834,45 C840.976106,49.1083845 867,49 877,59 C898.851596,80.8515965 902.834973,97.471286 899.096228,89.678982 L898.756501,88.9765627 Z M527.049076,72.1722582 C536.143103,70.3960352 562.526628,61.4910238 572,62 C566.448474,73.8815009 580,21 623,33 C624.881856,33.5251691 669.183069,40.2904383 669.001687,49 C668.879529,54.8410725 620.145146,61.7423166 616,69 C611.130851,77.5253306 619.420901,103.174251 616,112 C605.723882,138.51186 610.580608,145.846351 613.676781,143.013433 C616.130669,146.812252 616.471467,152.210548 616.967424,157.249201 L617.527764,162.711147 C626.559779,248.90707 645.296531,333.795381 652.123907,420.249642 C661.995078,516.982123 640.651284,612.477481 633.778989,708.55868 C628.168784,795.122025 635.759035,887.87338 632.694543,974.427376 C632.277392,979.230287 630.785486,985.73621 627.762092,989.969399 L627.464709,990.371834 L627.433951,990.382221 L626.237752,990.620596 C604.311352,995.05357 571.594259,1008.87062 549.033577,1008.75019 C527.983462,967.773267 505.166321,862.981837 512,792 C517.080271,739.23092 524,671 524,658 C524,634.487554 388,671 348,666 C334.838848,664.354856 334.21481,649.327829 332.76204,624.865062 C332.347723,617.888513 347.805534,614.744283 348,607 C349.408179,550.921577 349.265942,475.9695 349.935986,471.562751 C355.609757,427.666152 370.171477,385.047188 372.134844,340.703936 C372.788957,295.945194 354.180549,252.214792 361.69568,207.331402 C372.629017,141.965357 430.854369,96.5979212 491.206103,79.9845232 C502.996555,76.3791021 514.992058,74.519781 527.049076,72.1722582 Z" id="Jacket" fill="#9FD8E5"/><path d="M994.958052,2102.9717 L995.815338,2103.43342 L996.026025,2103.56656 C1000.44754,2106.36077 1003.43717,2111.2393 1007.62101,2120.41958 L1009.959,2125.676 L1013.96286,2126.76141 C1029.38285,2130.9428 1040.8729,2141.03322 1051.26088,2164.59091 L1051.57533,2165.30891 L1051.89229,2166.04258 C1055.38466,2174.18158 1056.70543,2183.1821 1056.3882,2193.79219 L1056.36134,2194.59097 L1056.31531,2195.72228 C1056.03494,2202.05954 1055.40835,2207.28412 1053.70321,2218.35419 L1052.46077,2226.30756 L1052.10458,2228.62549 C1049.96324,2242.70976 1049.21272,2250.60569 1049.4219,2259.50032 C1049.58612,2266.48331 1050.47853,2272.89071 1052.20996,2278.93447 C1059.25477,2303.52511 1073.05272,2329.1614 1090.83087,2353.78739 C1096.97852,2362.30303 1124.93869,2409.78278 1125.18179,2410.77497 L1125.66894,2412.7781 L1126.13263,2414.71631 C1126.20804,2415.03435 1126.28253,2415.35002 1126.35615,2415.66346 L1126.93145,2418.14676 L1127.28715,2419.72079 C1128.50179,2425.15362 1129.39706,2429.78725 1129.94816,2433.67196 L1130.02145,2434.19913 C1131.01525,2441.49812 1130.9763,2445.82149 1128.51847,2449.31358 L1128.35474,2449.54017 L1127.95037,2450.08544 L1127.45467,2450.54923 L1127.15105,2450.82459 L1126.83897,2451.09058 L1125.91112,2451.85738 L1124.78991,2452.29532 C1120.83887,2453.83859 1107.11211,2457.73201 1092.69393,2460.7872 C1069.30179,2465.74396 1044.9856,2468.64772 1020.95386,2468.49986 C1013.91018,2468.45652 1006.58161,2468.19268 998.986431,2467.72224 C978.47338,2466.45167 956.784978,2463.75235 933.829761,2459.92921 L929.836274,2459.2532 L925.622561,2458.51124 C910.697095,2455.84264 889.249074,2451.64183 885.387587,2450.93759 L885.022,2450.872 L884.870834,2450.86952 C876.022624,2450.59138 870.338707,2444.64662 868.19279,2435.64618 L868.100414,2435.24713 L868.015046,2434.85556 C866.586002,2428.09818 866.937521,2419.49005 868.66213,2409.83948 C869.622967,2404.46283 871.24893,2386.60658 873.54002,2356.27071 L860.656877,2313.31908 C842.5172,2230.90278 834.878071,2184.1697 837.739487,2173.11985 L837.836731,2172.75915 C838.413643,2170.70804 862.709421,2156.06625 864,2153 C865.310462,2149.88651 862.176166,2114.01742 863.491668,2110.34466 L863.62011,2110.00589 L863.740385,2109.70456 L863.795633,2109.58034 C865.146229,2106.54356 877.970852,2093.72284 913,2092 C926.282236,2091.34674 952.207534,2089.44264 969,2092 C984.644552,2094.38254 991.525391,2101.14624 994.958052,2102.9717 Z M316.260427,2125.93143 L317.984,2126.332 L318.345225,2126.12881 C321.386844,2124.44733 324.010056,2123.55408 327.325515,2123.71624 C331.751742,2123.93273 335.688594,2126.25251 338.91372,2130.3872 C340.815214,2132.82496 339.958018,2152.80347 339.937958,2153.76045 L339.933832,2154.00858 L339.932614,2154.46065 L339.934,2154.594 L340.019952,2154.65458 C341.324546,2155.53283 344.124915,2156.08525 349.664848,2156.40032 L350.925421,2156.4657 L353.558512,2156.58458 C358.110448,2156.80193 360.449846,2157.02315 363.147002,2157.59494 L363.4274,2157.65536 C368.375534,2158.73833 372.309555,2160.83834 375.04357,2164.55869 C379.414525,2170.50651 380.250273,2178.83683 378.987929,2189.48437 C378.548225,2193.19315 349.319522,2302.77009 347.255238,2312.16939 C344.131011,2326.39493 350.114637,2401.7706 350.766658,2408.77385 C351.550886,2417.19713 351.690695,2424.78648 351.024126,2430.88074 C350.068627,2439.61661 347.595797,2445.73023 341.815749,2448.47019 L341.502929,2448.61375 L340.829794,2448.91264 L339.010591,2449.32038 L337.863692,2449.56945 C326.031724,2452.10316 314.711672,2453.40891 295.833275,2454.79707 L281.424434,2455.82534 L278.267642,2456.06169 C273.894837,2456.39616 270.572165,2456.68425 267.225754,2457.0214 L264.267336,2457.33102 L264.15411,2457.33979 C214.385899,2461.19752 153.78552,2461.58015 110.071512,2457.78757 L107.506,2457.558 L105.591325,2457.49602 C98.6156834,2457.22507 94.2751869,2452.51774 91.9928522,2445.46798 L91.8766329,2445.10126 L91.7640668,2444.73042 C90.4866571,2440.4295 89.8627237,2435.34243 89.5475443,2428.48081 L89.4378139,2425.68803 C89.4190226,2425.1258 89.4019796,2424.55241 89.3839942,2423.87801 L89.2090206,2416.75081 L89.1592208,2415.19007 C89.1251271,2414.23879 89.088458,2413.44902 89.0444855,2412.71927 L88.989,2411.882 L88.7887765,2410.60162 C87.4425779,2401.81918 168.05513,2295.30578 172.458895,2283.44744 C177.826134,2268.99469 186.520112,2157.43479 190.270158,2152.98526 L190.392938,2152.84305 L201.799128,2139.95083 L203.461,2156.95 L203.472841,2156.92741 C203.744408,2156.34755 203.947473,2155.77586 204.067972,2155.25805 L204.121277,2155.00385 L204.16043,2154.7599 L204.176157,2154.64254 L204.195582,2154.52573 C206.211241,2142.40474 212.5992,2133.23942 222.593208,2127.24695 C230.98821,2122.21325 241.644981,2119.54908 254.253835,2118.80866 C272.597059,2117.73151 292.960092,2120.55009 316.260427,2125.93143 Z" id="Shoes" fill="#FFF"/><path d="M675.466095,5.0004 C678.80598,7.64237929 678.456686,14.9663612 678.785461,19.0663609 L678.808432,19.3348312 C679.859847,31.7193755 678.438207,44.1609534 675.423652,56.1850113 L675.168771,57.1860394 C673.651391,63.0860082 672.308305,70.4609692 667.582897,74.5951023 C662.465841,79.0720152 654.33658,76.1739671 654.151009,68.9548152 C654.058736,65.5997273 655.176266,62.3692867 656.59112,59.2219442 C646.676888,63.0548464 636.762656,66.8461996 626.807414,70.5440674 C620.447746,123.236606 693.913539,187.748817 736.447337,210.333856 C798.388219,244.687671 850.505091,192.067843 858.433401,130.20854 C859.766235,121.992211 860.658208,113.547361 860.832502,105.216771 C860.976038,98.257301 859.562209,88.5452045 864.216874,82.5932994 C860.919649,82.5153949 857.991516,82.9797058 854.762982,83.4866045 L854.917766,83.755177 C856.747649,87.0312841 859.333206,95.1858433 853.542927,95.8059055 C841.039922,94.4877611 835.224666,72.526997 832.176578,61.9943062 C830.194757,54.8239745 827.462448,25.0634101 833.510437,21.5577068 C835.332318,28.6262433 834.615663,36.3024351 836.832268,43.3917462 C841.876531,45.4276509 851.482161,45.9781762 853.706968,46.3531566 C879.687997,46.6543874 894.418885,65.3410843 904.949296,87.2156341 C935.819775,112.60212 980.192884,108.239467 1013.52808,129.146962 C1115.53394,203.233119 1082.22028,491.649146 1133.0279,614.348761 C1143.20049,610.13153 1153.56891,618.575341 1154.92738,628.88055 C1156.33198,636.806037 1155.91163,645.292435 1156.0244,653.321794 L1156.07252,654.324537 C1156.90302,670.747002 1159.73723,689.204657 1137.60054,689.562976 C1137.6354,698.730779 1139.35783,707.605662 1141.56828,716.455615 C1153.82625,770.024839 1159.17604,825.202012 1160.38277,880.117426 L1160.44359,884.152362 C1160.84198,913.016127 1161.19462,1002.31253 1144.6338,1012.87711 L1145.40512,1019.16698 C1147.32264,1034.89704 1149.12883,1050.66734 1150.1384,1066.47646 C1151.72755,1074.6824 1146.31932,1094.3455 1135.28346,1089.14044 C1115.04489,1094.15541 1095.0852,1101.5553 1074.05513,1101.59477 C1079.15066,1271.4422 1076.61827,1441.46414 1077.37081,1611.38116 C1075.74681,1736.63293 1082.5053,1862.91927 1076.59777,1987.69114 L1076.81144,1989.45166 C1078.48115,2003.46282 1078.98264,2015.64478 1062.81934,2020.4422 C1062.58661,2023.87 1059.95375,2025.70128 1056.83082,2026.10326 C1047.9726,2027.2978 1039.11438,2028.43001 1030.24591,2029.52068 C1021.9844,2030.1356 1013.14566,2032.1954 1004.91182,2031.2138 C1005.70742,2032.02089 1003.54618,2032.1445 1003.31242,2031.55658 C995.805492,2050.43025 993.626822,2071.00431 991.768032,2091.13796 C1009.98889,2098.09639 1019.93388,2113.74792 1016.95859,2133.37259 C1035.34349,2134.11736 1048.77025,2154.58547 1051.3457,2171.83665 C1052.99636,2183.74046 1051.67378,2195.56117 1051.14167,2207.48576 C1048.59698,2248.23709 1054.57526,2292.13992 1080.83208,2324.64376 L1081.92678,2325.94364 C1098.81346,2345.83751 1120.22279,2364.06889 1127.50176,2390.07317 C1129.52152,2391.01841 1131.18243,2392.84657 1131.91037,2395.70307 L1136.62852,2414.25473 L1138.97438,2423.53056 C1140.69265,2430.29268 1142.21944,2437.21076 1141.29812,2444.2121 L1141.20124,2444.8899 C1136.60502,2489.23316 955.165343,2467.85927 919.754003,2464.67454 C905.518314,2462.43816 889.899554,2463.65762 877.08282,2456.10504 C861.361534,2445.70946 859.395092,2424.62019 862.093568,2407.3472 L862.317917,2405.72818 C863.410656,2398.0047 865.011095,2389.90607 872.325629,2385.58587 C869.862963,2369.58117 870.816451,2353.20564 867.887293,2337.26429 C863.46331,2314.70626 850.080635,2295.13249 843.24935,2273.47608 C833.283855,2262.37416 832.947571,2245.06586 830.864249,2230.8675 C829.285354,2217.09398 827.993531,2203.22698 827.461422,2189.37036 C826.014785,2171.05345 833.949247,2155.94828 853.173834,2153.55506 C852.281861,2150.08467 854.722997,2147.08379 857.15183,2144.86091 C851.420646,2124.46551 849.838675,2096.46559 874.704225,2089.50715 C884.121207,2066.10983 886.859668,2040.75451 889.365395,2015.79909 C889.068071,2015.73677 888.770746,2015.68483 888.473422,2015.6329 C876.088321,2020.79849 873.511851,1996.31569 872.684469,1986.73552 C860.959634,1862.54221 862.039229,1737.61764 857.635752,1613.04313 L857.205104,1604.03723 C853.344627,1521.95603 851.04791,1439.15467 836.880455,1358.17071 C822.622211,1267.90846 818.894378,1176.17433 814.020307,1084.96476 C808.279895,1093.90092 805.192847,1104.16459 800.547409,1113.68556 C740.266418,1291.13231 678.415759,1468.04412 618.820664,1645.73186 C575.6266,1774.37819 534.360019,1903.71007 492.970407,2032.95886 C490.858379,2039.57555 484.204463,2040.94667 479.334494,2038.82767 C466.938115,2043.13631 453.927608,2045.58251 440.836106,2046.00527 C440.046658,2047.82304 438.426752,2049.15261 436.058409,2048.89293 C429.055906,2048.12427 420.997389,2050.31599 413.994886,2051.13658 C397.972174,2052.72272 382.418006,2055.1845 366.248683,2055.41614 C356.231925,2068.10523 355.601392,2085.31174 350.983636,2100.41379 C348.325145,2108.11179 348.742425,2125.37751 339.561251,2127.54533 C342.852325,2132.62471 343.282933,2138.72204 342.7498,2145.00633 C345.605139,2145.65658 348.501489,2146.88539 351.187662,2148.14329 C353.804117,2149.47078 357.259232,2149.35652 359.062658,2152.02813 C410.342922,2161.34031 372.86774,2258.90689 363.954158,2291.17598 C355.205643,2317.55757 352.466157,2345.11188 356.458507,2372.65372 C362.560834,2381.09857 360.516472,2393.65989 361.450481,2403.67011 C361.942604,2412.60316 362.84483,2421.67124 362.763835,2430.61468 C361.768311,2467.76683 315.9906,2461.72351 290.164385,2466.54424 C274.037097,2468.42434 257.838042,2469.73314 241.638986,2470.75109 C200.554901,2473.30947 159.240133,2473.50475 118.240118,2469.52435 C91.7679911,2468.68402 86.0757661,2451.38195 86.1178016,2427.71559 L86.0773864,2426.73645 C85.4808863,2410.67369 88.0658508,2391.27903 103.290851,2382.92673 C104.049541,2374.44033 108.346392,2365.87083 112.733465,2358.45432 C133.134022,2324.08804 163.763565,2293.97223 169.787973,2252.73166 C175.697553,2225.73307 169.001602,2166.30231 196.394409,2152.22548 C197.029043,2140.0703 204.482659,2127.67621 213.710995,2121.10523 C215.491865,2110.97868 222.20217,2101.66961 226.352409,2092.36365 C234.818979,2074.59623 242.650915,2056.54731 251.072373,2038.76535 C246.662744,2036.89564 241.977321,2033.45745 241.362167,2028.57543 C237.127857,2028.62737 232.94481,2025.88513 233.457438,2020.72266 C234.953493,2005.73508 238.225915,1990.99639 241.316317,1976.26766 L241.701527,1974.4266 C296.690143,1708.09599 410.242446,1459.04771 476.679079,1196.12931 C467.739866,1197.74972 459.382999,1187.50788 454.441262,1180.83925 C438.478015,1159.30333 429.049755,1133.24686 424.903617,1106.80918 L417.400178,1105.87724 C392.376324,1102.79888 367.229769,1100.10309 341.997238,1100.82764 L335.915652,1101.03144 C329.159407,1101.23818 322.392303,1101.18433 315.970095,1098.74866 C311.489724,1099.16415 306.824806,1096.75431 305.718554,1091.71648 C287.02915,998.394141 332.9668,909.82917 365.869338,825.501165 C373.620278,804.768176 379.136159,783.733957 384.396751,762.263471 C384.570019,761.567524 385.656791,761.712946 385.626034,762.429668 C384.600777,786.299612 378.695299,810.366914 372.696522,833.374715 C353.000316,911.388299 311.966468,987.891574 321.998604,1070.4849 C353.183837,1045.87539 390.222259,1028.78314 429.127674,1021.55048 C431.372986,1011.77606 433.854108,1002.07435 435.720075,992.237607 C433.884865,977.113743 432.634052,961.917169 431.034652,946.720594 C426.256956,901.265905 418.958153,855.925476 409.228468,811.269568 C394.134639,766.337358 380.957015,720.796455 376.244935,673.42116 L375.387272,673.59021 C364.922465,675.718708 353.392538,680.338915 343.683808,673.660067 C337.520991,669.380512 334.855323,662.286007 332.364975,655.471959 C325.253794,638.952046 323.93839,617.236422 344.062128,610.328888 C336.560325,557.803585 341.43542,502.97023 350.50074,450.936245 C357.762633,405.326786 373.689995,360.39146 367.727103,313.699647 C361.10702,268.831839 348.766006,221.838795 366.607522,177.918306 C395.928838,104.619503 470.183053,69.8429267 543.207984,58.6506444 L544.391092,58.3023245 C553.425201,55.6224128 561.651498,52.7974183 571.064208,54.8281294 C593.266141,13.5480837 629.273156,30.3370265 664.434333,39.5380694 C666.807803,32.5380888 668.786548,25.3771056 670.647389,18.2223547 C671.805929,14.577462 671.423508,6.16792903 675.466095,5.0004 Z M878.979545,2405.61252 L878.888204,2407.41332 C877.95824,2426.7407 879.005597,2443.29984 902.920314,2443.17289 C919.376367,2444.93365 935.83404,2446.64762 952.317096,2448.13973 L958.499478,2448.68853 C1007.41888,2453.06006 1056.92573,2455.19847 1105.75204,2448.63468 L1107.78608,2448.35614 C1111.8666,2447.77445 1119.42274,2447.88871 1122.65332,2444.86601 C1126.54725,2439.61525 1122.04022,2429.604 1121.09391,2423.50979 C1044.90914,2422.62168 968.624913,2419.80569 892.389902,2420.77794 C884.372395,2420.81949 880.753239,2413.9535 881.491424,2407.70037 C880.589198,2407.08752 879.738235,2406.38118 878.979545,2405.61252 Z M105.474648,2395.9212 C101.729385,2409.11927 102.652116,2421.59438 104.768246,2434.8101 C105.826311,2448.65113 112.397181,2449.53717 124.288108,2449.86229 C170.707629,2454.15327 217.464459,2453.25477 263.897309,2449.65558 C288.783364,2446.96632 314.358392,2447.06812 338.782056,2441.55248 C350.434098,2436.37858 343.707389,2420.10796 344.103138,2410.13099 C289.252932,2445.5495 206.298389,2441.05389 146.484915,2420.56084 L145.526492,2420.15115 C131.377664,2414.19476 113.289929,2410.44491 105.474648,2395.9212 Z M196.332894,2157.60609 C189.771251,2165.0226 189.895307,2186.70083 189.597983,2192.71506 C188.889531,2207.22607 189.002309,2221.76825 188.374852,2236.27823 C188.837242,2297.38653 153.620701,2327.86485 127.467428,2376.9956 C120.314213,2388.91914 130.720568,2390.61019 139.185087,2394.47737 C193.996334,2420.03629 258.83049,2423.94398 316.092101,2404.3754 C344.875157,2395.99391 338.590333,2376.5853 336.147147,2352.8452 C333.740869,2304.33146 359.216447,2260.62495 366.752084,2213.6963 L367.025016,2212.04877 C369.279118,2197.98058 372.859373,2163.47049 351.177409,2170.94334 C346.409966,2173.88294 341.929594,2170.19546 341.365703,2165.68739 C340.798736,2165.78087 340.215365,2165.83385 339.653524,2165.84319 C337.12114,2181.52797 334.496483,2197.19197 331.974352,2212.87675 C334.096633,2214.22709 336.085631,2215.75402 337.849073,2217.49908 C339.991859,2219.62847 338.494984,2224.095 335.265426,2223.82493 C333.605535,2223.67951 331.964099,2223.43021 330.333941,2223.1186 C329.041093,2236.75292 307.431758,2229.1027 313.67352,2218.17426 C282.602092,2207.41616 248.370822,2208.27415 216.817522,2216.52268 L216.687188,2216.57897 C214.244487,2217.55102 196.680928,2221.08053 202.330646,2223.82493 C204.68566,2224.11058 199.323568,2227.1956 198.383407,2222.42161 C198.079931,2216.42712 211.732249,2213.4844 215.915296,2210.99665 C205.365405,2195.86656 198.156826,2176.25747 196.332894,2157.60609 Z M992.342175,2109.70001 C963.073148,2093.81787 927.102017,2099.71265 895.352894,2102.5224 L894.019563,2102.67421 C885.940127,2103.54503 874.679837,2104.08285 870.971265,2112.42147 C865.601996,2125.78054 874.502249,2155.66783 877.298124,2170.52785 L878.565587,2175.72165 C880.766247,2184.79581 882.804573,2193.81777 883.562442,2203.2062 C883.582947,2203.51782 883.285623,2203.73595 883.008804,2203.73595 C871.887845,2191.83006 866.889718,2175.81809 861.694743,2160.54569 C859.479163,2161.81293 857.315871,2163.18405 855.275611,2164.69021 C847.30573,2192.13663 844.638067,2221.35779 850.948142,2249.35597 L851.174584,2250.34363 C858.970636,2284.94362 883.243587,2313.23854 885.55144,2349.39662 C887.093426,2364.01463 886.74894,2378.99411 890.94429,2393.18935 C893.331088,2393.71702 895.412359,2395.48078 896.347393,2397.69743 L910.030908,2397.71436 C976.169259,2397.82727 1042.32555,2398.42782 1108.42174,2401.15639 C1106.2892,2382.53201 1089.8851,2366.00587 1078.33148,2353.23888 C1042.87708,2316.85435 1027.54231,2264.58977 1033.3832,2214.21671 C1036.45589,2189.01615 1050.49063,2149.423 1016.15889,2140.11393 C1013.65316,2160.65164 1010.26264,2181.12183 1008.38744,2201.7416 C1014.86706,2204.8744 1014.46721,2213.13124 1006.55223,2212.97023 C1002.99972,2224.94883 991.087261,2220.10629 992.373958,2208.80494 C948.8026,2192.6787 923.804792,2187.27317 881.35814,2211.56795 C880.169868,2211.39345 884.619482,2206.61946 885.182348,2205.77082 C898.595781,2191.27746 919.198314,2184.46445 938.527478,2184.21827 C957.686449,2184.21516 975.70431,2191.45197 993.777535,2197.04655 C996.495148,2177.59009 998.325008,2158.01328 1000.47746,2138.4901 L1000.94408,2134.30745 C1002.07289,2124.05521 1001.66176,2115.58959 992.342175,2109.70001 Z M292.132878,2360.95745 C298.509974,2359.53439 304.374442,2357.37384 310.854064,2358.83844 C333.655773,2376.00237 240.487623,2380.8418 232.555212,2379.62337 C212.360801,2379.02749 192.157578,2376.45943 172.722569,2370.74122 L171.227582,2370.29792 C168.664682,2369.58061 150.157257,2364.34796 153.75501,2361.98475 C180.041565,2364.31877 205.775508,2369.15508 232.555212,2367.89614 C245.914307,2367.61569 259.324664,2366.67045 272.540223,2364.65532 C279.112118,2363.64775 285.653255,2362.42205 292.132878,2360.95745 Z M908.107292,2339.69492 C903.932447,2333.42516 924.283792,2341.75056 926.931005,2341.82431 C943.784174,2345.98856 960.934667,2349.14525 978.245101,2350.45613 C989.851007,2351.33904 1001.57994,2351.52601 1013.20635,2350.95472 C1021.81646,2350.65556 1030.33327,2349.38104 1038.88903,2348.50332 L1039.19678,2348.48813 C1044.28033,2348.31134 1054.46551,2351.46922 1048.18811,2357.5309 C1038.42664,2365.11672 1023.98283,2362.80555 1012.28362,2363.91907 C976.753353,2363.80377 939.130534,2358.07103 908.107292,2339.69492 Z M240.143137,2294.12586 C250.386476,2292.26654 306.764316,2291.65992 301.144884,2309.00043 C299.781292,2312.2932 296.664512,2313.38386 293.383691,2312.86553 C258.490105,2304.36044 220.850882,2299.91157 186.070075,2311.6388 C185.506184,2311.83616 185.116586,2310.91169 185.670225,2310.66343 C202.771506,2302.07524 221.069262,2296.07036 240.143137,2294.12586 Z M971.950128,2277.17394 C981.154369,2276.47332 990.414129,2276.71953 999.623922,2277.41383 L1002.61968,2277.64792 C1006.74919,2277.97263 1011.00116,2278.35007 1014.95924,2279.5556 L1015.69783,2279.79154 C1020.75542,2281.42545 1032.15115,2290.1331 1023.50003,2294.32332 C1014.21121,2297.33563 1006.35774,2293.75202 997.396998,2291.44501 C972.41867,2285.51492 946.162872,2287.52278 921.415226,2293.58583 L924.901099,2294.70765 C925.116403,2294.55184 925.393222,2294.9154 925.188171,2295.09198 C922.686545,2297.2837 919.251935,2296.50465 917.478241,2293.78319 C917.170664,2293.31576 917.365462,2292.56788 917.857586,2292.30819 C934.630785,2283.4894 953.126415,2278.60739 971.950128,2277.17394 Z M193.995411,2274.96125 C222.204476,2262.44723 254.887406,2261.06554 285.139695,2264.6941 L287.294967,2264.9574 C296.732915,2266.06688 309.042095,2266.57704 314.442565,2275.38713 C316.308532,2278.44098 314.38105,2281.94149 311.366795,2283.04254 C302.488073,2286.29376 292.05096,2279.78094 283.520824,2277.36071 C258.29951,2270.43967 231.360891,2269.71152 205.714095,2274.49382 C205.893515,2275.44529 201.645877,2275.02876 200.721095,2275.36635 C199.56153,2275.30091 191.868004,2277.85099 193.995411,2274.96125 Z M905.359707,2255.4229 C929.968943,2243.42872 958.421866,2240.56806 984.991393,2246.75992 L986.095878,2247.07559 C997.868246,2250.38893 1016.82181,2254.29666 1021.03942,2266.78657 C1021.9519,2269.60152 1019.97315,2273.40326 1017.01016,2273.97456 C1006.9729,2275.89621 997.858364,2268.55241 988.77459,2265.02073 C962.049224,2254.95443 931.796975,2252.54666 904.160156,2259.95175 C903.97561,2261.04241 903.791064,2262.12269 903.596265,2263.21335 C904.067883,2262.90173 904.560007,2263.59768 904.180662,2263.98305 C899.770007,2267.07845 895.181984,2259.26411 905.359707,2255.4229 Z M257.407434,2234.33685 C277.319527,2233.00992 297.399145,2235.54778 316.6222,2240.81106 L320.237046,2241.80953 C325.490963,2243.28622 332.296575,2245.61 333.061124,2251.29926 C333.358448,2253.56368 332.794557,2255.12177 330.959348,2256.52509 C324.267497,2261.5411 309.711929,2251.02919 301.391971,2249.7931 C271.184637,2240.69852 238.760113,2240.82686 208.161032,2247.78733 L207.118594,2248.02727 L207.856779,2253.29361 C208.582661,2255.81045 201.855952,2249.87516 204.411917,2247.17447 C220.564835,2238.9301 239.413154,2235.82119 257.407434,2234.33685 Z M924.131746,2224.92567 C940.113447,2222.0352 956.598883,2221.48508 972.757021,2222.94043 L974.665971,2223.11831 C984.314617,2223.97301 1015.57728,2225.21776 1008.18331,2241.56607 C1006.94275,2244.29793 1003.34308,2244.65109 1001.01574,2243.46694 C993.203288,2239.49901 984.6629,2238.06556 976.040492,2236.75677 C945.59652,2232.51149 914.493308,2234.25136 884.772143,2242.46977 C885.418054,2243.48772 884.085221,2244.69264 882.824155,2244.93155 C879.68687,2245.51324 879.68687,2241.76343 881.029956,2239.76908 C882.630381,2237.41117 885.817904,2236.54902 888.27852,2235.5103 C899.724486,2230.5109 911.861474,2227.13296 924.131746,2224.92567 Z M318.851066,2133.96363 L317.031136,2133.53092 C286.534508,2126.33856 218.918909,2113.44283 211.916795,2155.54941 C209.431573,2174.09484 217.629526,2192.18427 217.023599,2210.55 C248.647641,2197.65836 283.618121,2197.79236 316.473496,2206.31199 C319.3842,2187.25136 322.162646,2168.16994 325.13589,2149.11969 L325.616278,2146.84245 C326.939354,2140.4158 327.389475,2135.39127 318.851066,2133.96363 Z M250.928119,2141.63047 C257.573833,2135.91747 268.655833,2135.99953 275.17544,2142.23293 C281.136282,2143.48771 285.341885,2149.83018 285.438259,2155.26895 C294.501528,2171.23626 283.571267,2193.29986 266.265959,2197.28546 C227.190352,2205.54022 209.721003,2151.74144 250.928119,2141.63047 Z M927.945906,2116.15008 C960.641342,2110.29582 972.517915,2151.87086 945.683872,2168.73148 C907.776032,2187.79108 882.517808,2127.86796 927.945906,2116.15008 Z M267.106362,2023.80768 C267.587208,2026.98618 266.028817,2029.24853 264.163876,2031.39038 C257.460747,2058.93327 247.372222,2084.56489 237.425181,2110.96725 C269.785358,2105.5908 300.359537,2110.28273 328.99188,2119.0901 C329.334316,2111.03373 332.997558,2102.68133 335.542245,2095.08512 C340.497926,2080.66294 346.487301,2066.61027 353.395173,2053.03831 L354.263432,2051.34433 C356.744553,2046.51425 359.133401,2041.46604 362.065635,2036.8437 C330.394431,2032.50909 298.723227,2028.60348 267.106362,2023.80768 Z M904.959549,2017.93887 L904.116518,2021.77215 C900.481788,2038.39659 897.031312,2055.17738 891.62096,2071.32943 L891.547117,2071.66373 C890.718737,2075.73934 888.856488,2094.61184 887.683974,2081.29082 C886.781748,2083.29557 885.818007,2085.27954 884.79275,2087.23234 L890.387335,2086.56175 C920.317915,2083.00201 951.663609,2079.92203 981.084857,2087.47125 C978.108537,2064.35542 982.489459,2042.26897 988.88706,2020.41104 C960.848341,2019.76495 933.058759,2019.9727 904.959549,2017.93887 Z M373.98937,2046.67006 C372.964114,2047.63607 371.959362,2048.62286 371.005873,2049.6512 C372.297697,2049.31881 373.590546,2048.99681 374.789071,2048.71635 C374.739858,2047.95704 374.2057,2047.38678 373.98937,2046.67006 Z M1005.83455,2025.46964 L1005.22244,2026.9077 C1005.12143,2027.14661 1005.02118,2027.38436 1004.92207,2027.61981 C1005.39369,2027.33935 1005.9176,2027.06928 1006.48046,2026.83037 C1006.22415,2026.41488 1006.00885,2025.96823 1005.83455,2025.46964 Z M493.657329,657.5598 C490.786611,658.951694 487.792861,659.304861 483.83537,659.471058 C451.681271,660.807899 419.629696,664.541084 388.055892,670.907441 C389.798828,696.512059 397.570274,721.316857 404.96545,745.726939 L406.499081,751.076854 C431.486744,838.539591 453.297649,929.935121 448.904876,1021.41545 C449.150937,1021.50893 449.386746,1021.63358 449.612303,1021.74784 C449.213307,1022.8688 448.926805,1024.01717 448.525554,1025.12743 L448.269216,1025.78849 L446.768787,1029.52352 C445.939481,1031.59757 445.133853,1033.67892 444.434756,1035.8122 C443.207524,1036.25574 441.699372,1036.58086 440.261962,1036.7886 C432.967261,1085.22132 439.903122,1139.52597 472.772851,1177.40106 C459.131811,1148.79868 453.893774,1113.22748 459.517307,1081.994 C462.569496,1085.30754 462.786851,1092.94841 463.955643,1097.90729 C467.164697,1114.85932 469.417186,1132.05233 474.237943,1148.65014 L474.760729,1150.31462 C480.16557,1167.31307 489.209799,1189.23274 504.884915,1198.00941 C507.841755,1198.89856 512.415425,1197.79231 513.813876,1201.42682 C514.622454,1204.67114 513.116241,1208.68132 509.793799,1209.69182 L509.55906,1209.75741 C500.013921,1212.46848 491.914393,1205.25972 485.793611,1197.65624 L485.488409,1201.62685 C484.900185,1209.14468 484.079905,1216.36128 479.724091,1222.54414 C479.211463,1224.6943 478.709087,1226.85485 478.188257,1229.00606 C466.397805,1301.92364 448.662915,1377.30302 416.373481,1443.11779 L412.618186,1454.4659 C351.233016,1639.8149 287.658206,1825.04338 250.661245,2017.3468 C289.534877,2013.24486 328.734541,2015.22779 367.530253,2019.09082 C404.114487,2022.89671 442.809725,2033.03573 477.858124,2016.84821 C572.813296,1726.0857 670.764268,1436.19468 778.114793,1149.86441 C791.053533,1104.41907 815.355192,1060.59103 827.377351,1013.99894 L828.130172,1011.53809 C830.955716,1002.19752 832.282018,996.138128 830.208085,985.704015 L830.119781,984.429922 C829.691793,977.899101 829.541538,967.996088 836.974779,966.186336 C838.235845,965.874718 839.886508,966.113626 840.759001,967.204289 C845.355227,973.114645 841.052225,980.638144 842.376856,987.501012 C846.235923,1013.75172 835.901335,1038.50146 823.820736,1061.13636 C824.610184,1062.09199 825.15357,1063.26575 825.245843,1064.55377 C826.301857,1078.50388 826.168574,1092.5994 826.7745,1106.58066 C828.493856,1146.78043 830.995482,1186.94385 834.165576,1227.05221 C844.094161,1300.51201 858.168885,1373.21147 865.816275,1446.99224 C883.227183,1618.8413 880.096049,1792.01369 892.739515,1964.20553 C892.841015,1979.33043 897.576676,1995.05156 892.7795,2009.73293 C895.804007,2007.73857 900.100858,2008.18523 902.755247,2010.59507 C954.296951,2007.01874 1005.91657,2008.77211 1057.44597,2005.70267 C1057.49724,2003.37592 1057.67153,2001.20498 1057.7638,1999.53263 C1056.32127,1996.09548 1058.71524,1992.27712 1058.64552,1988.626 C1052.35763,1952.89172 1057.53415,1914.48687 1056.2372,1877.94965 C1056.29769,1843.37043 1056.47198,1808.8016 1056.70779,1774.22238 C1058.6568,1558.13914 1056.03625,1342.00812 1059.97836,1125.95292 C1060.28594,1115.32674 1060.76883,1104.73173 1061.45473,1094.13672 C1058.61784,1090.97275 1060.50944,1086.48441 1060.51252,1082.67956 L1060.67852,1079.30106 C1061.54118,1062.2219 1062.52107,1046.5345 1055.87733,1029.70449 C1056.03112,1027.69974 1056.49351,1025.81965 1057.53825,1024.28233 C1026.45759,1009.67368 994.008217,998.610197 961.92281,986.576545 C956.509455,987.916503 949.732508,984.540641 948.594473,978.702996 C936.506697,916.524803 926.982062,853.951895 918.749251,791.160854 C864.874064,826.62299 799.184843,832.231077 738.006752,846.59667 L726.428092,849.606257 C697.874374,857.065367 667.922749,865.748758 646.20527,886.079718 C644.010195,918.174302 660.321004,1010.66358 611.305533,1008.24543 C595.247963,1013.15964 578.742355,1017.10161 562.308516,1019.22373 C581.441856,1055.63007 616.343644,1104.13654 588.749886,1144.45265 C584.747284,1148.70416 579.366737,1144.39136 575.708621,1141.75196 C576.161784,1165.32275 576.790267,1188.77097 576.815898,1212.32306 C576.815898,1215.46002 573.58634,1218.29574 570.469559,1217.22585 C552.79516,1211.11814 550.610338,1189.90734 547.872902,1173.90055 C545.422539,1159.60767 542.961923,1145.31479 540.542317,1131.01152 C539.000331,1156.6795 545.161098,1183.0964 540.143492,1208.46835 C535.326283,1222.97822 520.359042,1218.65609 515.873043,1206.49284 L515.740333,1206.12186 C506.867762,1181.45625 502.546305,1155.11933 500.752106,1128.99639 L500.656914,1127.46786 C500.139893,1119.53936 499.29941,1111.15415 501.255507,1103.47383 C505.22325,1110.95267 504.235928,1123.15771 506.08344,1132.20606 C509.179715,1151.543 513.366864,1170.74698 519.248761,1189.41913 L519.401661,1190.07628 C522.059811,1201.02975 532.472112,1222.3668 532.351541,1195.55801 C532.749854,1181.9386 531.581563,1168.35894 530.843203,1154.76664 L530.740863,1152.82479 C529.777122,1134.26274 529.879648,1115.5241 535.436539,1097.62684 C536.851393,1093.04605 544.540818,1092.18391 545.473802,1097.62684 C549.206761,1119.39855 552.773629,1141.19104 556.341522,1162.98353 C558.942599,1176.29378 558.834947,1191.30754 566.737625,1202.78755 C566.829898,1177.72411 565.443751,1152.73234 564.246251,1127.69798 L564.006688,1126.92387 C563.033961,1123.73231 561.981065,1119.47063 564.215494,1116.70825 C565.086962,1110.99525 573.412046,1111.64965 574.119473,1117.63272 C574.273262,1118.87919 574.38604,1120.14644 574.509071,1121.4033 C577.267011,1124.87264 579.830153,1128.4147 583.090469,1131.39585 C604.859744,1086.83343 533.634138,1009.87207 523.800901,959.548871 C494.840476,861.550182 511.490644,758.799317 519.914153,659.00363 C511.203572,657.970097 502.421223,657.693796 493.657329,657.5598 Z M249.779524,2020.75382 C249.449392,2021.98679 249.196153,2023.34233 248.600479,2024.46208 C249.072097,2024.54517 249.553968,2024.63866 250.035839,2024.74253 C250.620235,2023.55838 251.235389,2022.4054 251.901806,2021.27318 C251.194379,2021.10699 250.486951,2020.94079 249.779524,2020.75382 Z M611.326448,1561.78195 C612.238926,1561.62614 612.608019,1562.89339 611.716045,1563.18423 C581.706783,1573.18717 556.4137,1591.80116 531.120618,1610.26972 C527.53222,1612.88732 524.179631,1607.42361 526.691509,1604.46324 C537.269792,1592.04466 550.224824,1583.47285 564.647402,1576.25874 L565.497475,1575.83593 C579.924886,1568.54822 595.402161,1563.90823 611.326448,1561.78195 Z M898.695538,1543.17835 C898.346951,1542.50318 899.269682,1541.98382 899.690037,1542.58628 C906.374711,1552.02831 915.222676,1560.81594 924.009126,1568.23245 C932.908354,1575.75283 942.617534,1581.69435 952.142169,1588.29026 C957.278705,1591.84271 952.870101,1599.41503 947.292705,1596.69356 C936.445489,1591.40644 926.705551,1582.67075 918.739306,1573.58189 C910.527,1564.20219 904.447228,1554.16809 898.695538,1543.17835 Z M712.375233,1215.86512 C679.255341,1271.65514 630.352649,1327.83884 593.855562,1385.05192 C569.209416,1421.72937 546.914185,1459.97841 519.903798,1495.0022 C514.500695,1502.37716 504.084087,1496.21751 507.785264,1487.8246 C518.058336,1464.57789 529.511478,1442.24526 543.29913,1420.93993 L547.746577,1414.32243 C595.765276,1342.99083 646.658741,1271.51496 712.375233,1215.86512 Z M850.354379,1130.72057 C850.068066,1129.79034 851.426496,1129.38023 851.79301,1130.20353 L851.830748,1130.30404 C876.694248,1198.65539 915.025519,1260.79515 948.563715,1324.88979 C951.157615,1330.13536 944.247385,1336.46121 940.1156,1331.4961 C916.442424,1303.03498 899.843518,1269.55681 885.121858,1235.6725 C869.598446,1202.08631 860.074837,1166.31255 850.354379,1130.72057 Z M908.127592,93.5414809 C923.352654,124.183924 934.527952,156.612978 942.268639,189.987274 C944.653899,200.291237 930.871057,206.6146 925.302796,197.587518 L925.1366,197.309259 C918.288911,185.854179 908.084531,175.765025 895.168348,171.81994 C886.367545,208.816276 890.656193,247.912918 895.228838,285.269692 C903.336352,337.315377 909.789257,389.582636 910.754024,442.323632 L910.800436,445.149498 C913.626044,625.261626 940.023327,804.562508 968.935565,980.905097 C1015.15619,988.35173 1057.47058,1009.35167 1100.07615,1027.814 C1107.4785,1030.71205 1115.04489,1033.23616 1122.79686,1034.98122 C1101.39053,835.054336 1019.98002,647.55686 994.824322,448.360202 C988.174507,396.55266 987.863854,343.944258 997.048103,292.436908 C997.202917,291.450117 998.596241,291.78251 998.657756,292.65504 C999.666609,313.812868 1003.27551,334.694395 1005.4142,355.736925 C1006.87006,343.718855 1010.2329,331.544975 1012.94881,320.025494 C1016.27167,308.756346 1017.49992,290.663801 1027.23269,283.316885 L1027.84681,281.187495 C1028.10313,280.273416 1029.45647,280.657745 1029.24219,281.571824 C1029.13864,282.00809 1029.03611,282.433968 1028.94384,282.870233 C1035.19585,284.53739 1029.35599,291.972597 1027.8058,295.532314 C1017.77162,322.531942 1014.78607,351.757562 1007.93633,379.586094 C1017.84749,466.461057 1035.69823,552.233931 1057.68178,636.671002 C1077.88139,631.325713 1098.14764,626.180899 1118.39748,620.955064 C1073.22878,473.281338 1099.64041,308.47589 1031.96732,167.468713 C1006.61272,120.147432 944.172541,126.576112 908.127592,93.5414809 Z M564.953678,66.5449688 C555.480307,66.0359926 545.58658,71.1984653 536.492553,72.9746883 C524.435535,75.3222111 512.440032,77.1815322 500.650605,80.7869533 C440.297846,97.3993126 382.072494,142.767787 371.139157,208.133832 C363.624025,253.017222 382.232434,296.747624 381.57832,341.506366 C379.614954,385.849618 365.053233,428.468582 359.379463,472.365181 C352.553304,517.252725 350.204441,564.23642 356.057631,609.342097 C410.197335,593.920119 466.737165,592.954103 522.252763,600.918022 C517.622704,532.552134 523.698375,463.848659 527.060192,395.530552 C529.479797,351.654728 533.621834,307.581546 532.155717,263.622623 C532.12496,262.64622 533.703855,262.407313 533.855593,263.383716 C550.505761,353.166076 540.739166,444.308129 539.057745,534.854991 C537.989428,557.731913 540.810934,580.826967 539.670849,603.577163 C564.910618,609.033595 563.998139,638.587453 556.280007,658.067737 C554.912315,662.755512 550.267902,661.942189 546.509311,661.371928 C542.436991,665.67018 532.720634,660.062093 527.183223,660.063132 C522.848437,772.454421 496.51472,892.502166 550.477054,997.548548 C573.037736,997.673051 594.754828,989.857002 616.681229,985.423079 L617.877428,985.184651 L617.908186,985.174264 C621.130567,980.960149 622.707412,974.18765 623.13802,969.229806 C626.202512,882.67581 616.612261,795.924455 622.223491,709.361111 C629.094761,613.279911 650.438555,517.784554 640.566358,421.052072 C633.740998,334.597811 615.00329,249.709501 605.971241,163.513577 L605.512832,159.053986 C604.949966,153.73986 604.737738,147.867936 602.119233,143.815863 C586.882893,157.757655 574.096917,174.335737 564.944451,192.988156 C559.875582,201.998073 546.299133,197.988587 546.089981,187.816334 C544.137892,169.653453 543.848949,151.421955 545.826544,133.255153 L546.006935,131.652371 C548.458324,108.911523 555.300887,87.2062855 564.953678,66.5449688 Z M1131.39774,690.310859 C1111.77433,691.352702 1092.12631,693.539222 1072.46598,693.281618 L1074.44537,700.73884 C1098.24394,790.220453 1123.58401,879.54242 1138.52327,971.099515 L1139.06595,962.51395 C1139.60652,953.927411 1140.12344,945.336491 1140.46101,936.728042 C1144.69942,854.44529 1138.22697,772.269528 1131.39774,690.310859 Z M1073.98336,690.393957 L1071.65603,690.279697 L1071.79957,690.788674 C1072.27802,690.691726 1072.76559,690.604011 1073.25315,690.519374 L1073.98336,690.393957 Z M1137.93888,629.960826 C1137.57081,629.846566 1136.94438,629.846566 1136.2472,629.877728 C1135.24245,632.204476 1133.21244,634.126121 1130.85435,634.759745 L1111.18314,640.098922 C1094.78739,644.546248 1078.38245,648.974722 1061.9571,653.280245 C1064.71504,663.958358 1067.51502,674.63647 1070.3437,685.304196 C1092.74556,678.038301 1117.5496,679.68676 1140.39026,675.010412 C1140.10934,662.684879 1139.43985,650.295983 1139.2307,637.948636 C1139.17944,635.933506 1139.58954,632.692678 1138.56428,630.885293 C1137.9194,629.732306 1138.56428,630.158184 1137.93888,629.960826 Z M385.422008,671.447579 L384.805828,671.582613 C385.01088,672.143526 385.195426,672.704438 385.369719,673.275738 C385.380997,672.662889 385.390225,672.060428 385.422008,671.447579 Z M531.264769,612.136273 C489.058028,605.950654 446.135657,602.295374 403.568025,606.505334 C384.313705,609.130197 364.768212,611.930605 345.897338,615.512135 C339.335695,625.659458 346.595537,650.351035 354.765808,658.162262 C357.216171,659.097116 361.429976,657.279344 363.777814,656.749593 C381.393774,652.743223 399.183003,649.515899 417.060403,646.995947 C417.593537,647.67112 418.372732,648.107385 419.336473,648.0139 L423.443966,647.631577 C448.101429,645.368628 472.976877,643.709197 497.687613,645.126239 L497.871134,645.271661 C514.542833,646.497359 531.157117,649.142996 547.760124,651.05737 C554.31459,633.794767 553.184757,613.986245 531.264769,612.136273 Z M838.358876,49.1151314 C839.990059,54.6785527 841.95035,60.0851262 844.387385,65.3400456 C846.932072,64.6305951 850.441525,65.1998175 852.312619,66.8150378 L853.108044,66.6700007 C855.296496,66.2514323 857.92419,65.6112687 858.607695,65.5374037 C888.764595,61.3326372 886.466994,101.980098 886.576697,122.407701 C886.761243,132.649549 886.966294,142.901783 887.273871,153.14363 C895.903457,150.18222 907.443746,155.505695 914.986559,160.217361 C909.081081,140.408839 902.140093,120.922322 894.399405,101.778585 L892.638145,97.300965 C886.615701,82.1004993 879.873737,66.7911471 867.127578,56.2096361 C857.276912,53.6138576 847.733823,53.1422756 838.358876,49.1151314 Z M619.713663,38.9169107 C591.68417,28.844376 580.581666,51.7348007 572.807145,74.5639405 C563.64135,99.8465532 561.139724,127.684434 562.667356,154.888692 L563.611134,153.630456 C573.924068,139.779389 588.7931,116.915339 607.594103,120.589929 C607.410583,110.080091 607.787877,98.5346411 609.788153,87.6207376 C608.61936,80.5781692 608.322036,73.4628899 609.133014,66.3476107 C609.561571,57.4259853 619.206161,58.7794465 625.5566,57.518432 C631.051976,53.8309515 637.705892,52.3455721 644.390565,54.9423893 C649.434828,54.2672168 654.479091,53.6232062 659.523354,52.9791955 C660.297423,51.2652961 660.922829,49.5430869 661.573867,47.785561 C647.612947,44.8781644 633.656128,41.8814373 619.713663,38.9169107 Z" id="Ink" fill="#000"/></g></g><g id="Head" transform="translate(405.000000, 189.000000) scale(0.9978902953586498 1)"><g id="Head/Long Curly" stroke="none" stroke-width="1" fill="none" fill-rule="evenodd"><path d="M343.4072,146.7179 C277.6372,93.2619 172.2402,75.9049 101.8372,129.8359 C47.1332,180.4489 24.4952,324.2749 34.1762,396.5469 C36.8682,442.9019 72.2832,495.4429 124.2702,480.7819 C133.0982,479.9129 141.6702,476.5289 150.5792,475.8199 C161.2362,474.5929 171.9742,474.5719 182.6102,476.0749 C205.7862,479.3529 226.3312,491.6579 248.8252,497.4109 C290.5642,508.0849 337.1352,500.9049 373.0632,476.8609 C491.7902,398.8029 438.0102,222.2679 343.4072,146.7179 L343.4072,146.7179 Z" id="Skin" fill="#edb98a"/><path d="M334.6483,498.6955 C335.8693,498.2745 337.0883,497.8355 338.2983,497.3855 C338.3783,497.6655 338.5083,497.9345 338.6593,498.1955 C338.8293,498.6155 338.9993,499.0245 339.1883,499.4345 C337.6693,499.4455 336.1483,499.1745 334.6483,498.6955 M332.2093,-19.3255 C331.6693,-20.5345 331.0483,-21.6945 330.3483,-22.8155 C332.0483,-22.2645 333.7493,-21.5045 335.2893,-20.5245 C334.2493,-20.1745 333.2283,-19.7745 332.2093,-19.3255 M72.4193,138.8355 C72.3493,138.8235 72.2803,138.8135 72.2113,138.8015 C73.1033,136.4265 74.6923,134.1845 76.4473,132.5655 C76.7623,132.2745 77.1033,132.0055 77.4333,131.7275 C75.5703,133.9465 73.8803,136.3135 72.4193,138.8355 M547.7683,387.1845 C546.8883,378.8445 545.7683,370.5355 544.3183,362.2745 C542.9283,354.3655 541.7583,345.9055 537.7283,338.8855 C533.7283,331.8955 529.7183,325.1045 524.9593,318.9555 C525.6383,315.8155 526.5393,312.8655 527.3183,310.4855 C531.8183,296.7855 536.2493,279.3855 526.8983,266.6555 C524.7283,263.7055 522.0793,261.4455 519.0483,259.4055 C517.7583,258.5355 515.6193,257.7455 514.6283,256.5455 C513.9283,255.6955 514.1693,256.1555 514.1383,255.7355 C513.9683,253.4755 519.2683,248.7055 520.5083,246.9155 C522.8293,243.6045 524.5583,239.8755 525.8783,236.0655 C531.0983,220.9855 527.5483,204.3755 524.4093,189.2645 C522.7493,181.2555 520.9193,173.2255 520.3183,165.0455 C519.7583,157.3655 520.8083,149.8655 521.4283,142.2255 C522.0293,134.6845 521.8693,126.9055 518.6383,119.9245 C517.0583,116.5245 514.6693,113.5245 511.7583,111.1845 C508.9193,108.8955 505.3783,107.5655 502.6093,105.2855 C499.8483,103.0145 500.6383,99.9455 501.3593,96.8055 C502.3483,92.5455 503.5983,88.3155 503.7183,83.9155 C503.9383,76.2455 500.8083,68.7745 495.9193,62.9755 C490.8783,56.9855 483.6783,52.9345 475.8983,52.0245 C472.3383,51.6045 468.8383,52.3155 465.2983,52.0655 C461.7983,51.8255 461.0393,50.0755 460.3783,46.8755 C458.8593,39.5455 459.4783,32.3055 455.8693,25.4655 C452.6693,19.3855 446.9783,15.2645 440.6883,12.8355 C429.1593,8.3755 415.7493,9.2955 403.5883,11.9245 C396.4093,-9.1945 373.9993,-23.0445 351.9493,-23.2145 C348.5083,-29.0545 342.6783,-33.4145 336.0293,-35.9755 C325.0293,-40.2255 313.3783,-37.7445 301.9193,-37.7445 L301.8693,-37.7445 C300.7183,-37.8155 299.5683,-37.8445 298.4193,-37.8345 C297.3383,-37.8955 296.2583,-37.9855 295.1783,-38.1045 C282.1383,-39.6455 269.2383,-44.9855 256.3183,-39.7545 C250.5583,-37.4245 245.9783,-33.8345 243.0793,-29.2545 C238.7093,-28.0655 234.3983,-26.7045 230.1693,-25.1245 C211.8383,-24.6455 193.6783,-14.8155 184.4093,1.1155 C171.3593,-0.3645 157.1993,2.1455 148.5683,12.8055 C146.3203,15.5795 144.5793,18.8385 143.4253,22.2985 C134.6253,25.1445 126.4823,30.2155 121.1533,37.8535 C116.2903,44.8235 115.3563,53.8355 118.6453,61.3175 C110.7893,67.0085 104.6503,75.1555 101.6933,84.7755 C99.8963,90.6205 99.6293,96.6595 100.7853,102.4125 C92.7423,104.1965 85.0493,107.5035 78.2333,112.4665 C71.0903,117.6655 62.1693,125.9405 61.6993,135.4645 C61.6643,136.1635 61.6913,136.8625 61.7473,137.5595 C46.0223,136.4545 29.9883,139.1185 19.3593,151.7255 C11.3783,161.1845 7.9093,173.3655 10.0393,184.4555 C-8.6707,188.2555 -26.3617,198.0355 -38.7017,212.4955 C-47.6707,223.0055 -55.6407,236.3655 -55.1617,250.6745 C-55.0117,254.9855 -54.0007,259.3255 -52.2507,263.3355 L-52.2507,263.3445 C-53.0007,264.7555 -53.7717,266.3255 -54.5117,267.9955 C-66.1017,276.1045 -74.5217,288.8155 -79.2617,302.8255 C-83.0907,314.1745 -85.5007,328.9155 -81.4117,340.4655 C-80.7907,342.2255 -80.0007,343.8855 -79.0807,345.4245 C-79.8517,346.2455 -80.5807,347.0655 -81.2907,347.8955 C-89.1017,357.0245 -97.0117,368.5245 -96.4707,381.0945 C-96.2507,386.1555 -94.3717,391.2455 -91.3007,395.4245 C-102.1017,406.3755 -110.8007,420.1955 -109.9417,435.6255 C-109.2017,449.0555 -101.8307,462.6955 -90.2817,469.1455 C-92.2107,479.4955 -89.6307,490.4155 -81.5717,498.4955 C-77.5507,502.5355 -72.8117,505.1955 -67.7907,506.6155 C-66.6707,518.8055 -55.8517,528.6155 -44.3617,531.4345 C-42.2207,531.9655 -40.0807,532.2855 -37.9517,532.4345 C-27.6117,537.5055 -15.2817,536.9245 -4.7317,532.2745 C-1.6217,536.2255 2.4283,539.4455 7.1483,541.7555 C9.0583,542.6955 11.0793,543.4755 13.1883,544.1045 C28.0883,548.5145 43.3693,542.5355 56.3983,535.5555 C56.8183,535.3355 57.5883,535.0555 58.2683,534.7455 C60.0683,536.7555 63.3483,538.7455 65.0583,539.7255 C70.8593,543.0555 77.9493,544.6045 84.6093,544.1655 C92.4193,543.6455 99.3083,541.0655 105.6883,537.3955 C106.6193,537.5555 107.5583,537.6455 108.4993,537.6955 C114.4993,538.0145 119.8483,536.1155 124.6593,533.1155 C127.8383,533.5355 131.0983,533.4955 134.3983,532.9155 C141.6693,534.7645 148.7493,531.8255 154.4383,527.1555 C156.9593,525.0855 159.0883,522.6555 161.3693,520.3355 C163.7383,517.9245 165.5393,517.3655 168.3083,515.7455 C174.8593,511.9155 175.6483,502.2055 172.8083,495.1845 C173.3483,493.9555 173.6593,492.5855 173.6593,491.0655 C173.6383,477.8055 167.5293,465.6455 160.0293,455.0355 C156.6783,450.3055 153.0393,445.6745 149.0483,441.4755 C145.8383,438.1045 141.3293,432.6355 136.5793,431.2645 C136.2893,431.0555 135.9883,430.8445 135.6883,430.6455 C136.6093,427.4245 137.1483,424.1455 136.9193,420.7955 C136.6783,417.3545 135.5683,414.0945 133.7893,411.3155 C139.7583,399.7455 142.2793,387.0555 141.0793,373.8155 C145.9383,366.9245 149.6193,359.3155 151.5183,350.9755 C152.6883,345.8155 153.3593,340.3855 153.2683,335.0945 C153.2283,332.5555 152.2983,329.3445 152.2793,326.7155 C152.4193,327.5455 153.4993,324.4455 153.9193,323.6745 C158.7383,314.7255 164.9283,307.7455 165.9593,297.1955 C166.5583,291.0245 165.0983,284.2055 161.3983,279.1455 C163.7683,269.8055 163.7383,259.7745 160.0083,250.8655 C159.0083,248.4855 157.8593,246.1555 156.5393,243.9455 C157.1483,242.0855 157.7093,240.2055 158.4283,238.5145 C158.7093,237.8445 158.9883,237.1655 159.2683,236.4855 C161.9783,234.0945 164.4993,231.4855 166.6193,228.9245 C171.3183,223.2555 174.9093,216.7555 175.3593,209.2645 C175.5793,205.5145 174.6993,201.9245 173.6093,198.3655 C173.1283,196.7555 172.8383,194.9655 172.2683,193.3955 C171.9493,192.5245 171.1783,191.6355 170.9093,190.8155 C170.8483,190.6355 170.7983,190.4855 170.7583,190.3655 C170.7983,190.2455 170.8293,189.9955 170.8293,189.5245 C170.8383,185.9345 171.3083,182.4245 171.3293,178.9655 C174.6193,182.2855 178.5793,184.7645 183.0793,186.2155 C192.1483,189.1255 201.6093,187.8055 209.6383,183.3155 C218.2793,189.2355 227.9883,194.5945 238.1693,196.7455 C244.2183,198.0245 250.2793,197.4955 256.3483,198.2855 C262.3783,199.0755 268.2093,201.7055 273.8883,203.7555 C286.5293,208.3255 299.1383,213.0145 311.8183,217.4655 C322.0583,221.0555 333.1383,223.9055 343.8593,221.8855 C346.8693,226.5245 350.7793,230.4455 355.7893,233.3255 C359.3783,235.3755 363.3183,236.7645 367.3883,237.4555 C370.9883,238.0655 375.2093,237.8255 378.1283,240.2955 C380.9783,242.6955 382.7583,246.2745 385.3183,248.9755 C388.1693,251.9955 391.6883,254.6155 395.3783,256.4955 C398.3383,258.0055 401.3593,259.0945 404.4283,259.8055 C404.1593,266.6355 403.8983,273.4555 403.8183,280.2955 C403.6693,295.1555 403.7283,310.0145 403.5293,324.8755 C403.3293,339.6845 402.8593,354.4955 402.0793,369.2855 C401.3383,383.1655 400.2983,397.0945 396.9883,410.6355 C386.0083,455.5655 344.8783,487.7355 298.8383,489.3755 C285.1693,489.8655 271.6383,487.9455 258.5683,483.9245 C245.0293,479.7555 232.9383,471.1745 219.0583,468.5355 C215.4283,467.8545 212.0083,471.5055 214.0883,475.0145 C217.6693,481.0455 222.0183,484.7255 227.9683,488.3545 C234.1993,492.1455 241.1383,494.9555 247.9883,497.4155 C260.5883,501.9345 273.9193,504.5555 287.2893,505.2855 C297.4883,505.8445 307.7283,505.1455 317.7183,503.2255 C318.4193,505.3755 319.6593,507.4655 320.5983,509.4555 C320.7383,509.7455 321.2093,509.5455 321.1193,509.2455 C320.9683,508.7455 320.8693,508.3055 320.8293,507.9455 C324.1883,512.3255 329.3783,515.3545 334.7093,516.8255 C338.4683,517.8655 342.4593,518.1845 346.3293,517.7455 C347.5793,517.6045 348.7683,517.3955 349.9493,517.1355 C353.8883,520.5855 358.9283,522.8855 363.9883,524.0355 C363.1193,529.3155 365.7283,535.0755 371.7793,536.5755 C374.3183,537.2055 376.7583,537.2155 379.1993,536.9855 C381.1693,537.9055 383.2893,538.6255 385.5393,539.1155 C388.4683,539.7555 391.9683,538.9345 394.1783,536.8155 C395.3883,537.6655 396.5183,538.2555 397.6383,539.6045 C402.2493,545.1655 412.1883,540.7355 412.6283,534.3055 C414.0883,534.3055 415.5583,534.3255 417.0293,534.3755 C417.3783,534.5355 417.7283,534.6955 418.0883,534.8655 C424.5183,537.8545 431.1783,540.4655 438.2893,538.1155 C439.5983,537.6845 440.7983,537.1355 441.8883,536.4955 C446.8983,536.9455 451.8383,536.9555 456.9193,535.3155 C459.9193,534.3445 462.7383,532.8055 465.0883,530.7855 C472.9283,533.0855 481.1993,534.1255 488.9993,531.2745 C494.8383,529.1455 499.5393,525.7855 502.8483,521.3545 C507.9093,521.5355 513.0483,520.3155 517.6783,517.9055 C525.5983,513.8055 531.1483,506.0145 535.0183,498.2055 C543.5393,480.9755 548.5793,462.4655 550.5583,443.3755 C552.5083,424.5755 549.7283,405.8755 547.7683,387.1845" id="Ink" fill="#000"/></g></g><g id="Beard" transform="translate(527.000000, 518.000000) scale(1 1)" fill="#000"><g id="Beard/None" stroke="none" stroke-width="1" fill="none" fill-rule="evenodd" fill-opacity="0"/></g><g id="Face" transform="translate(563.000000, 366.000000) scale(1 1)" fill="#000"><g id="Face/Smile" stroke="none" stroke-width="1" fill="none" fill-rule="evenodd"><path d="M146.586567,240.926554 C139.864291,238.184203 133.866322,233.609781 129.481228,227.766254 C127.956691,225.734803 127.561405,223.589624 127.881219,221.627583 C128.240828,219.421406 129.546036,217.4219 131.326046,216.080693 C133.111571,214.735331 135.345035,214.071832 137.504329,214.410065 C139.380629,214.703969 141.248396,215.731287 142.726594,217.861908 L143.035427,218.287981 C145.642441,221.814933 149.039621,224.708755 152.91047,226.573991 C156.641339,228.371775 160.813939,229.21087 165.131898,228.722919 C173.355732,227.793938 179.024012,223.346401 185.048774,217.30672 C185.795561,216.544195 186.542826,215.757766 187.293714,214.958678 C187.767915,214.234308 188.425986,213.768756 189.156624,213.524488 C189.967867,213.253272 190.885573,213.268617 191.726122,213.56195 C192.536835,213.844871 193.261572,214.380994 193.747527,215.094538 C194.209389,215.772704 194.47125,216.610486 194.386283,217.574143 C193.834826,223.833283 190.562474,229.419299 185.914235,233.805502 C180.751772,238.67694 173.908551,242.047034 167.465957,243.229031 C160.36811,244.531047 153.135593,243.598228 146.586567,240.926554 L146.586567,240.926554 Z M170.814304,144.367155 C178.365682,148.9572 189.871664,159.660291 181.748119,171.039573 C172.185929,181.073062 158.418535,169.568982 151.634201,164.366134 C145.343449,160.333898 138.275437,170.704507 144.112,175.412823 C193.135736,211.708059 213.030606,145.567387 174.633685,138.970386 C170.406047,138.243425 168.835891,142.947174 170.814304,144.367155 Z M82.9633,102.1464 C83.7976284,91.7901242 99.5703,89.4384 101.1393,99.6864 C102.5443,108.8664 100.8903,117.2994 96.7553,125.5644 C92.8043,133.4604 82.8737826,129.776544 82.1227826,122.586544 C81.1160984,112.948648 82.4443,108.588596 82.9633,102.1464 Z M203.027,97.5615 C205.226,94.6815 208.401,92.7155 212.205,93.8265 C224.09,97.2995 220.587,114.1725 216.413,122.3855 C214.145,126.8455 206.814,127.9765 203.501,124.0495 C198.101,117.6455 195.515,104.8565 202.38,98.5485 C202.566,98.2225 202.773,97.8935 203.027,97.5615 Z M96.5879,56.8305 L98.465271,56.501905 C104.27307,55.49746 111.4944,54.5323 115.6029,59.2015 C117.7819,61.6775 118.5319,66.2795 115.6029,68.6495 C110.4509,72.8195 104.7549,71.2035 98.5809,71.5565 C93.4929,71.8485 88.6029,72.6905 83.7019,74.0915 C72.9499,77.1645 64.1889,82.7745 55.0059,88.9345 C53.8009,89.7425 52.5709,88.2015 53.1459,87.0745 C58.4469,76.6915 68.7199,68.1625 79.0099,62.9635 C84.5019,60.1885 90.5119,57.8865 96.5879,56.8305 Z M192.192876,52.1793876 L193.629806,52.4734684 C209.267042,55.742077 229.583473,62.2713911 236.988459,77.6308459 C237.270623,79.8027272 236.97249,80.2682047 236.730054,80.5723213 L236.649336,80.6735209 C236.449568,80.9332186 236.290169,81.2912104 235.348782,81.5868073 C235.087547,81.5245653 234.823712,81.4586426 234.557082,81.3887687 C231.162766,80.499243 228.477205,79.2737961 225.877298,78.0022488 L223.058339,76.6134493 C219.787784,75.0098309 216.488352,73.4645766 212.991711,72.3238115 C205.52958,69.8898666 197.854137,68.1753043 190.059777,67.259767 C188.37041,67.0615005 186.743655,66.4913394 185.460262,65.5141761 C184.242065,64.5866523 183.311441,63.3024737 182.887128,61.5955207 C182.33722,59.3864508 182.495251,57.7140037 183.680513,55.7210991 C184.571756,54.2244705 185.846982,53.1871113 187.311265,52.5914244 C188.804038,51.9841473 190.503545,51.840982 192.192876,52.1793876 Z" id="Ink" fill="#000"/></g></g><g id="Mask" transform="translate(428.000000, 479.000000) scale(1 1)" fill="#000"><g id="Mask/None" stroke="none" stroke-width="1" fill="none" fill-rule="evenodd" fill-opacity="0"/></g><g id="Accessories" transform="translate(451.000000, 421.000000) scale(1 1)" fill="#000"><g id="Accessories/Glasses 5" stroke="none" stroke-width="1" fill="none" fill-rule="evenodd"><path d="M367.0895,74.4323 C364.2615,82.1283 359.9575,90.1403 354.6945,96.6173 C333.4005,114.6493 312.7095,104.6653 302.2035,80.2263 C298.2115,62.9553 308.8105,44.3513 320.0415,31.6463 C336.2615,15.3893 362.7325,23.9213 370.1905,43.2473 C370.6435,45.7513 370.9175,48.2493 371.0485,50.7393 C370.8935,58.8303 369.9185,65.7453 367.0895,73.4323 M162.4095,58.9113 C190.4615,25.5443 242.9415,23.7603 241.6025,75.1153 C235.5765,140.1193 134.1055,124.1643 162.4095,58.9113 Z M375.9125,31.0763 C374.9295,29.4113 373.8385,27.8003 372.6475,26.2593 C372.2075,25.9973 371.9545,23.6733 370.3365,23.5013 C348.7095,-0.3577 310.7165,13.1793 296.9885,36.9533 C294.4815,39.9593 292.4365,43.4783 290.9285,47.1963 C277.4025,44.7153 261.6335,45.1973 249.0535,50.3063 C236.5795,17.7343 198.8145,14.8263 173.9275,28.7433 C158.4485,36.3563 148.4115,52.2993 133.3575,61.0573 C97.9685,63.6043 59.9875,55.6753 25.2375,64.5523 C-2.1685,70.2503 20.7415,84.1273 25.3375,74.8663 C58.1005,65.1863 96.9155,73.3663 130.9325,71.1853 C134.4695,77.1683 141.2525,82.0643 148.0125,81.8553 C155.3135,146.5763 249.6975,135.8443 252.9535,78.3113 C256.6465,72.4723 261.2395,66.8843 267.8135,63.2463 C270.3305,62.7253 272.7615,62.0483 274.9835,61.0003 C278.7815,60.4643 284.6335,62.0743 288.1275,65.2363 C300.0965,137.0523 369.0515,128.6883 381.3745,65.7743 C381.6195,65.5243 382.3045,64.5863 382.8305,63.0813 C387.0485,57.5043 397.3745,55.4313 395.7245,46.0163 C394.2555,36.5993 382.3635,36.7113 375.9125,31.0763 Z" id="Ink" fill="#000"/></g></g></g></svg>